<svg width="151" height="22" viewBox="0 0 151 22" fill="none" xmlns="http://www.w3.org/2000/svg">
<g clip-path="url(#clip0_0_6106)">
<path d="M135.57 7.11846V9.54004H131.268C130.84 9.54004 130.409 9.54004 129.981 9.54004C129.319 9.56062 128.867 9.82569 128.892 10.5128C128.916 11.1999 129.387 11.4341 130.041 11.4392C130.927 11.4392 131.813 11.4598 132.698 11.4392C135.984 11.3543 137.192 12.605 136.704 16.0713C136.516 17.4043 135.731 18.2433 134.379 18.2948C131.595 18.4028 128.802 18.3282 125.96 18.3282V15.9735H130.42C131.02 15.9735 131.619 15.9735 132.219 15.9735C133.088 15.9735 133.521 15.6416 133.491 15.0085C133.456 14.2159 132.889 14.0666 132.189 14.0641C130.96 14.0641 129.736 14.0641 128.507 14.01C126.739 13.9277 125.799 13.0501 125.616 11.3954C125.594 11.2076 125.575 11.0197 125.57 10.8319C125.466 8.24047 126.442 7.19053 129.169 7.10046C131.167 7.03612 133.167 7.07215 135.164 7.067C135.276 7.07472 135.388 7.09787 135.57 7.11846Z" fill="black"/>
<path d="M92.1015 13.8216H86.8616V15.8804H93.5131V18.3019H83.5127C83.4963 17.9854 83.4718 17.6972 83.4691 17.4115C83.4691 14.2565 83.4854 11.1016 83.4473 7.94658C83.4473 7.26978 83.6571 7.0819 84.3628 7.09219C87.1313 7.12822 89.9025 7.10508 92.6738 7.10765C92.9272 7.10765 93.1779 7.12824 93.5131 7.14368V9.49062H86.8425V11.3666H92.0988V13.8216H92.1015Z" fill="black"/>
<path d="M115.384 9.5425V11.3439H120.63V13.8118H115.395V15.9503H122.126V18.3075H112.117V7.16211H122.104V9.5425H115.387H115.384Z" fill="black"/>
<path d="M57.8905 9.47532V11.3719H63.1169V13.8398H57.8905V15.9294H64.621V18.3021H54.6016V7.16699H64.591V9.48305H57.8851L57.8905 9.47532Z" fill="black"/>
<path d="M80.5182 7.10502L77.6489 14.3105C77.1857 15.4686 76.7034 16.6266 76.2701 17.7898C76.2279 17.9871 76.1057 18.1611 75.9295 18.2745C75.7534 18.388 75.5373 18.432 75.3273 18.3971C74.4445 18.3636 73.5534 18.428 72.6733 18.3636C72.5072 18.3465 72.3473 18.2941 72.2058 18.2103C72.0642 18.1265 71.9445 18.0135 71.8558 17.8798C70.4361 14.416 69.0628 10.9317 67.6813 7.455C67.6661 7.34222 67.6661 7.22807 67.6813 7.11529C68.7113 7.11529 69.7277 7.07669 70.7359 7.14617C70.9566 7.16161 71.2427 7.52448 71.3381 7.78182C72.1256 9.85856 72.8776 11.9507 73.6406 14.0352C73.7333 14.2925 73.8368 14.5293 74.0221 14.9848C74.2946 14.3002 74.4989 13.8036 74.6842 13.2992C75.3682 11.4438 76.0467 9.5909 76.717 7.72519C76.8751 7.27484 77.0794 7.06898 77.6162 7.09729C78.5209 7.13847 79.4365 7.10502 80.5182 7.10502Z" fill="black"/>
<path d="M150.085 7.15137V9.48031H146.36V18.3405H142.995V9.55752H139.248V7.15137H150.085Z" fill="black"/>
<path d="M106.765 14.8514C107.4 14.1231 108.087 13.6084 108.362 12.9445C108.662 12.2239 108.686 11.3567 108.651 10.5589C108.533 7.82339 107.637 7.0514 104.732 7.04883H97.375V18.31H100.582V14.7072C101.214 14.7072 101.751 14.7458 102.28 14.7072C102.942 14.648 103.329 14.8848 103.615 15.4535C104.029 16.2796 104.512 17.0799 105.002 17.87C105.13 18.0758 105.381 18.346 105.588 18.3563C106.623 18.4052 107.664 18.3795 108.858 18.3795L106.765 14.8514ZM105.373 11.1277C105.348 11.7684 105.144 12.2497 104.351 12.2522C103.155 12.2522 101.956 12.2522 100.667 12.2522V9.48068C101.956 9.48068 103.204 9.43949 104.446 9.4961C105.198 9.5347 105.413 10.0057 105.373 11.1302V11.1277Z" fill="black"/>
<path d="M14.6639 22L27.2066 5.1957L41.6403 22H46.0683L27.1712 0L9.78906 22H14.6639Z" fill="black"/>
<path d="M38.4381 21.9999L27.1597 8.86529L25.3204 11.0887L26.5793 8.59766L22.9035 12.5118L24.7918 9.66304L20.7917 13.9529L14.0176 21.9999H38.4381Z" fill="black"/>
<path d="M0 21.9232C0 21.9232 7.69509 19.6895 15.6954 18.9277L9.78781 22.0004L0 21.9232Z" fill="black"/>
<path d="M46.0679 22.0002H151.001C151.001 22.0002 54.6895 19.6095 51.7793 19.576L45.1251 12.0669L43.8308 13.7086L44.7 12.0154L42.392 14.3443L43.482 12.8363L40.4465 15.8858L45.1851 9.36733L53.2235 18.6522L44.8118 5.81348L38.4219 13.7576L41.7571 19.4062L46.0679 22.0002Z" fill="black"/>
</g>
<defs>
<clipPath id="clip0_0_6106">
<rect width="151" height="22" fill="white"/>
</clipPath>
</defs>
</svg>
