<svg width="34" height="34" viewBox="0 0 34 34" fill="none" xmlns="http://www.w3.org/2000/svg">
<path d="M11.8875 19.5003C9.58143 19.5003 7.70532 21.3764 7.70532 23.6825C7.70532 25.9886 9.58143 27.8647 11.8875 27.8647C14.1936 27.8647 16.0697 25.9886 16.0697 23.6825C16.0697 21.3764 14.1935 19.5003 11.8875 19.5003ZM11.8875 26.9349C10.0941 26.9349 8.635 25.4758 8.635 23.6824C8.635 21.889 10.0941 20.4299 11.8875 20.4299C13.6809 20.4299 15.14 21.889 15.14 23.6824C15.14 25.4758 13.6809 26.9349 11.8875 26.9349ZM27.2606 14.4525C26.0476 14.4525 24.7422 14.8417 24.7422 15.6964C24.7422 16.551 26.0476 16.9403 27.2606 16.9403C28.4735 16.9403 29.779 16.551 29.779 15.6964C29.779 14.8417 28.4735 14.4525 27.2606 14.4525ZM27.2606 16.0106C26.4622 16.0106 25.9267 15.8298 25.7296 15.6964C25.9267 15.563 26.4621 15.3821 27.2606 15.3821C28.059 15.3821 28.5944 15.563 28.7916 15.6964C28.5944 15.8298 28.059 16.0106 27.2606 16.0106ZM32.9375 4.66411H31.437C31.3611 4.21155 30.9678 3.86524 30.4939 3.86524H27.4216V2.58061C27.4216 2.32389 27.2135 2.11577 26.9568 2.11577H25.3742C25.1174 2.11577 24.9093 2.32389 24.9093 2.58061V2.87154H23.7916C23.5348 2.87154 23.3267 3.07966 23.3267 3.33638V3.50592H19.4631C18.9353 3.50592 18.5058 3.93537 18.5058 4.4633V5.20466H18.281C18.0243 5.20466 17.8162 5.41277 17.8162 5.6695C17.8162 5.92623 18.0243 6.13434 18.281 6.13434H18.5058V6.20141H17.8323C17.7271 6.20141 17.6416 6.11588 17.6416 6.01069V5.65031C17.6416 5.39358 17.4335 5.18546 17.1768 5.18546C16.92 5.18546 16.7119 5.39358 16.7119 5.65031V6.01069C16.7119 6.62847 17.2145 7.1311 17.8323 7.1311H18.5414C18.6536 7.53525 19.0238 7.83308 19.4631 7.83308H23.3267V8.00215C23.3267 8.25888 23.5348 8.467 23.7915 8.467H24.9093V8.75792C24.9093 9.01465 25.1174 9.22277 25.3741 9.22277H26.9567C27.2134 9.22277 27.4215 9.01465 27.4215 8.75792V7.47369H30.4939C30.9677 7.47369 31.3611 7.12738 31.437 6.67482H32.9375C33.1942 6.67482 33.4023 6.46671 33.4023 6.20998V5.12895C33.4023 4.87223 33.1942 4.66411 32.9375 4.66411ZM21.7198 4.43554V6.90326H21.0425V4.43554H21.7198ZM19.4356 6.87557V4.46323C19.4356 4.44875 19.4487 4.43554 19.4632 4.43554H20.1128V6.90326H19.4632C19.4487 6.90326 19.4356 6.89005 19.4356 6.87557ZM22.6495 6.90326V4.43554H23.3267V6.90326H22.6495ZM24.2564 7.53718V3.80116H24.9093V7.53711L24.2564 7.53718ZM26.492 8.29295H25.8391V3.04546H26.492V8.29295ZM30.5216 6.51618C30.5216 6.53066 30.5084 6.54387 30.4939 6.54387H27.4216V4.79493H30.4939C30.5084 4.79493 30.5216 4.80808 30.5216 4.82262V6.51618ZM32.4727 5.74494H31.4513V5.5938H32.4727V5.74494ZM31.4396 13.7389C30.316 13.3126 28.8318 13.0778 27.2605 13.0778C27.1549 13.0778 27.0499 13.079 26.9451 13.0811V12.8798C26.9451 12.5514 26.818 12.2596 26.5774 12.036L25.4317 10.9714C25.0907 10.6547 24.6138 10.5736 24.1875 10.7594C23.7287 10.9594 23.496 11.3468 23.496 11.9106C23.496 12.0331 23.3964 12.1327 23.2739 12.1327H22.8314C22.7089 12.1327 22.6093 12.0331 22.6093 11.9106V11.1292C22.6093 10.4941 22.0926 9.97741 21.4575 9.97741H18.2599C18.2069 9.97741 18.1235 9.89068 18.0022 9.75833L16.7249 8.36686C16.5235 8.14705 16.2478 7.8461 15.7817 7.8461H12.6451V6.12007H14.9238C15.1805 6.12007 15.3887 5.91195 15.3887 5.65522C15.3887 5.3985 15.1805 5.19038 14.9238 5.19038H12.1855C12.182 5.19038 12.1784 5.19038 12.1749 5.19038H9.43666C9.17993 5.19038 8.97182 5.3985 8.97182 5.65522C8.97182 5.91195 9.17993 6.12007 9.43666 6.12007H11.7154V7.84623H7.42767C6.97923 7.84623 6.58079 8.09771 6.38802 8.50239L6.05691 9.19693C6.01747 9.27974 5.94814 9.32344 5.85643 9.32344H4.60634C3.97129 9.32344 3.45452 9.84008 3.45452 10.4752V13.9494H1.52734V10.6857C1.52734 10.429 1.31923 10.2209 1.0625 10.2209C0.805773 10.2209 0.597656 10.429 0.597656 10.6857V18.1427C0.597656 18.3994 0.805773 18.6076 1.0625 18.6076C1.31923 18.6076 1.52734 18.3994 1.52734 18.1427V14.8791H3.45452V18.3532C3.45452 18.9883 3.97123 19.505 4.60634 19.505H5.337C5.38422 19.6143 5.45169 19.7169 5.5408 19.8061C5.97464 20.24 5.96434 20.7926 5.81002 21.1652C5.65575 21.5377 5.27219 21.9358 4.65873 21.9358C4.12217 21.9358 3.68568 22.3723 3.68568 22.9088V24.4562C3.68568 24.9927 4.12217 25.4292 4.65873 25.4292C5.27219 25.4292 5.65575 25.8273 5.81002 26.1998C5.96434 26.5723 5.97464 27.125 5.54087 27.5588C5.16143 27.9382 5.16143 28.5555 5.54087 28.935L6.63498 30.0291C6.81879 30.2129 7.0631 30.3141 7.32308 30.3141C7.58306 30.3141 7.82744 30.2129 8.01112 30.0291C8.44568 29.5945 8.99838 29.6045 9.37072 29.7587C9.74299 29.9129 10.1408 30.2967 10.1408 30.9112C10.1408 31.4477 10.5773 31.8842 11.1138 31.8842H12.6612C13.1977 31.8842 13.6342 31.4477 13.6342 30.9112C13.6342 30.2977 14.0322 29.9142 14.4048 29.7599C14.7771 29.6056 15.3299 29.5952 15.7638 30.029C15.9476 30.2129 16.1919 30.3141 16.4519 30.3141C16.7118 30.3141 16.9562 30.2129 17.1399 30.029L18.2342 28.9349C18.6135 28.5554 18.6135 27.9381 18.2341 27.5587C17.8003 27.1249 17.8106 26.5723 17.965 26.1997C18.1192 25.8272 18.5028 25.4291 19.1162 25.4291C19.6528 25.4291 20.0893 24.9927 20.0893 24.4561V22.9088C20.0893 22.3722 19.6528 21.9357 19.1162 21.9357C18.6366 21.9357 18.2982 21.6922 18.0994 21.408H21.1188V29.2656C21.1188 30.0478 21.8158 30.743 23.0815 31.2232C24.2051 31.6495 25.6893 31.8843 27.2606 31.8843C28.8319 31.8843 30.316 31.6496 31.4397 31.2232C32.7053 30.743 33.4024 30.0478 33.4024 29.2656V15.6964C33.4023 14.9142 32.7053 14.219 31.4396 13.7389ZM19.1163 22.8654C19.1402 22.8654 19.1597 22.8849 19.1597 22.9088V24.4561C19.1597 24.48 19.1402 24.4995 19.1163 24.4995C18.2199 24.4995 17.4496 25.0146 17.1061 25.844C16.7626 26.6733 16.943 27.5823 17.5769 28.2162C17.5938 28.2331 17.5937 28.2606 17.5769 28.2776L16.4827 29.3717C16.4658 29.3886 16.4382 29.3886 16.4212 29.3717C15.7874 28.7378 14.8784 28.5575 14.049 28.901C13.2197 29.2445 12.7045 30.0148 12.7045 30.9112C12.7045 30.9351 12.6851 30.9545 12.6612 30.9545H11.1138C11.09 30.9545 11.0705 30.9351 11.0705 30.9112C11.0705 30.0139 10.5555 29.2432 9.72652 28.8997C9.44861 28.7847 9.16194 28.7285 8.87945 28.7285C8.31911 28.7285 7.77564 28.9498 7.35376 29.3717C7.33689 29.3885 7.30934 29.3885 7.29234 29.3717L6.19823 28.2776C6.18123 28.2606 6.18123 28.2331 6.19816 28.2162C6.83207 27.5823 7.01243 26.6733 6.66891 25.844C6.32533 25.0146 5.55515 24.4995 4.65873 24.4995C4.63482 24.4995 4.61537 24.48 4.61537 24.4561V22.9088C4.61537 22.8849 4.63482 22.8654 4.65873 22.8654C5.55515 22.8654 6.32539 22.3502 6.66891 21.5209C7.0125 20.6915 6.83214 19.7826 6.19823 19.1486C6.18129 19.1317 6.18136 19.1042 6.19829 19.0873L7.2924 17.9931C7.3094 17.9761 7.33696 17.9762 7.35383 17.9931C7.98781 18.627 8.89678 18.8074 9.72606 18.4638C10.5554 18.1203 11.0706 17.35 11.0706 16.4536C11.0706 16.4297 11.09 16.4102 11.1139 16.4102H12.6613C12.6851 16.4102 12.7046 16.4297 12.7046 16.4536C12.7046 17.35 13.2198 18.1203 14.0491 18.4638C14.8784 18.8073 15.7874 18.627 16.4213 17.9931C16.4383 17.9761 16.4658 17.9762 16.4827 17.9931L17.5769 19.0873C17.5938 19.1042 17.5939 19.1318 17.5769 19.1487C16.943 19.7826 16.7627 20.6916 17.1062 21.5209C17.4496 22.3502 18.2199 22.8654 19.1163 22.8654ZM17.8843 20.4784C17.9213 20.2489 18.0264 20.0139 18.2342 19.8061C18.6135 19.4268 18.6136 18.8094 18.2342 18.43L17.1399 17.3357C16.7605 16.9564 16.1432 16.9566 15.7638 17.3358C15.3301 17.7695 14.7774 17.7594 14.4048 17.605C14.0322 17.4506 13.6342 17.0672 13.6342 16.4537C13.6342 15.9171 13.1977 15.4806 12.6612 15.4806H11.1138C10.5773 15.4806 10.1408 15.9172 10.1408 16.4537C10.1408 17.0672 9.74279 17.4506 9.37025 17.605C8.99771 17.7593 8.44502 17.7696 8.01118 17.3358C7.63187 16.9565 7.01456 16.9564 6.63498 17.3358L5.5408 18.43C5.49552 18.4752 5.45607 18.5241 5.42161 18.5753H4.60634C4.48382 18.5753 4.38421 18.4757 4.38421 18.3532V10.4752C4.38421 10.3527 4.48382 10.2531 4.60634 10.2531H5.85637C6.30481 10.2531 6.70318 10.0016 6.89602 9.5969L7.22713 8.90236C7.26657 8.81961 7.3359 8.77585 7.42761 8.77585H15.7817C15.8347 8.77585 15.9182 8.86258 16.0394 8.99493L17.3168 10.3865C17.5181 10.6062 17.7939 10.9072 18.2599 10.9072H21.4575C21.58 10.9072 21.6796 11.0068 21.6796 11.1292V11.9107C21.6796 12.5457 22.1963 13.0624 22.8314 13.0624H23.2739C23.909 13.0624 24.4257 12.5458 24.4257 11.9107C24.4257 11.6698 24.4816 11.6454 24.559 11.6117C24.645 11.5742 24.7302 11.5888 24.7989 11.6526L25.9445 12.7171C25.9949 12.7639 26.0154 12.811 26.0154 12.8798V13.1286C24.9162 13.2188 23.9024 13.4274 23.0814 13.7389C21.8158 14.219 21.1187 14.9142 21.1187 15.6964V20.4784H17.8843ZM22.0485 19.2105C22.3156 19.392 22.6375 19.5578 23.0111 19.7043V28.1015C22.3895 27.805 22.0485 27.4703 22.0485 27.1881V19.2105ZM27.2606 30.9545C24.0789 30.9545 22.0485 29.9543 22.0485 29.2656V28.6246C22.3324 28.8173 22.6779 28.9924 23.0816 29.1456C24.2051 29.5718 25.6893 29.8066 27.2606 29.8066C28.8319 29.8066 30.3161 29.5719 31.4398 29.1456C31.8435 28.9924 32.189 28.8173 32.4728 28.6246V29.2656C32.4727 29.9543 30.4422 30.9545 27.2606 30.9545ZM23.9408 28.4492V20.0026C24.2462 20.082 24.5682 20.1498 24.9034 20.2057V28.6753C24.5541 28.6113 24.2322 28.5348 23.9408 28.4492ZM25.8331 28.8064V20.3262C26.1472 20.356 26.4689 20.376 26.7957 20.3857V28.8699C26.4602 28.8593 26.1387 28.8376 25.8331 28.8064ZM27.7254 28.8698V20.3857C28.0523 20.376 28.3739 20.356 28.688 20.3262V28.8064C28.3824 28.8376 28.0608 28.8593 27.7254 28.8698ZM29.6177 28.6752V20.2057C29.9529 20.1499 30.2749 20.082 30.5803 20.0026V28.4492C30.2888 28.5348 29.9672 28.6113 29.6177 28.6752ZM31.51 28.1016V19.7044C31.8836 19.5578 32.2055 19.392 32.4727 19.2105V27.1881C32.4727 27.4703 32.1315 27.805 31.51 28.1016ZM27.2606 19.4629C24.0789 19.4629 22.0485 18.4626 22.0485 17.774V17.1329C22.3324 17.3257 22.6779 17.5008 23.0816 17.6539C24.2051 18.0802 25.6893 18.315 27.2606 18.315C28.8319 18.315 30.3161 18.0802 31.4398 17.6539C31.8435 17.5008 32.189 17.3257 32.4728 17.1329V17.774C32.4727 18.4626 30.4422 19.4629 27.2606 19.4629ZM27.2606 17.3853C24.0789 17.3853 22.0485 16.385 22.0485 15.6964C22.0485 15.0077 24.0789 14.0075 27.2606 14.0075C30.4422 14.0075 32.4727 15.0077 32.4727 15.6964C32.4727 16.385 30.4422 17.3853 27.2606 17.3853Z" fill="white"/>
</svg>
