<svg width="50" height="50" viewBox="0 0 50 50" fill="none" xmlns="http://www.w3.org/2000/svg">
<g clip-path="url(#clip0_1_125)">
<path d="M42.6777 7.32227C37.9558 2.60049 31.6777 0 25 0C18.3223 0 12.0442 2.60049 7.32227 7.32227C2.60049 12.0442 0 18.3223 0 25C0 31.6777 2.60049 37.9558 7.32227 42.6777C12.0442 47.3995 18.3223 50 25 50C31.6777 50 37.9558 47.3995 42.6777 42.6777C47.3995 37.9558 50 31.6777 50 25C50 18.3223 47.3995 12.0442 42.6777 7.32227ZM41.6419 41.6419C37.1967 46.0871 31.2865 48.5352 25 48.5352C18.7135 48.5352 12.8033 46.0871 8.35811 41.6419C3.91289 37.1967 1.46484 31.2865 1.46484 25C1.46484 18.7135 3.91289 12.8033 8.35811 8.35811C12.8033 3.91289 18.7135 1.46484 25 1.46484C31.2865 1.46484 37.1967 3.91289 41.6419 8.35811C46.0871 12.8033 48.5352 18.7135 48.5352 25C48.5352 31.2865 46.0871 37.1967 41.6419 41.6419Z" fill="black"/>
<path d="M25 7.82822C24.5955 7.82822 24.2676 8.15615 24.2676 8.56064V11.6919C24.2676 12.0964 24.5955 12.4243 25 12.4243C25.4045 12.4243 25.7324 12.0965 25.7324 11.692V8.56064C25.7324 8.15615 25.4045 7.82822 25 7.82822Z" fill="black"/>
<path d="M25 37.5756C24.5955 37.5756 24.2676 37.9035 24.2676 38.308V41.4393C24.2676 41.8438 24.5955 42.1717 25 42.1717C25.4045 42.1717 25.7324 41.8438 25.7324 41.4393V38.308C25.7324 37.9035 25.4045 37.5756 25 37.5756Z" fill="black"/>
<path d="M41.4394 24.2676H38.3081C37.9036 24.2676 37.5757 24.5955 37.5757 25C37.5757 25.4045 37.9036 25.7324 38.3081 25.7324H41.4394C41.8438 25.7324 42.1718 25.4045 42.1718 25C42.1718 24.5955 41.8438 24.2676 41.4394 24.2676Z" fill="black"/>
<path d="M11.6919 24.2676H8.56064C8.15615 24.2676 7.82822 24.5955 7.82822 25C7.82822 25.4045 8.15615 25.7324 8.56064 25.7324H11.6919C12.0964 25.7324 12.4243 25.4045 12.4243 25C12.4243 24.5955 12.0964 24.2676 11.6919 24.2676Z" fill="black"/>
<path d="M12.4853 16.9289L11.1294 16.1461C10.779 15.9437 10.3312 16.0639 10.1289 16.4141C9.92667 16.7644 10.0467 17.2124 10.397 17.4146L11.7528 18.1974C11.8682 18.264 11.9942 18.2957 12.1184 18.2957C12.3715 18.2957 12.6177 18.1642 12.7533 17.9294C12.9556 17.5791 12.8356 17.1311 12.4853 16.9289Z" fill="black"/>
<path d="M39.603 32.5854L38.2472 31.8025C37.8969 31.6002 37.4489 31.7203 37.2467 32.0706C37.0444 32.4209 37.1645 32.8689 37.5147 33.0711L38.8706 33.8539C38.9859 33.9205 39.1119 33.9522 39.2361 33.9522C39.4893 33.9522 39.7355 33.8207 39.8711 33.5858C40.0733 33.2356 39.9533 32.7876 39.603 32.5854Z" fill="black"/>
<path d="M33.5858 10.1289C33.2355 9.92655 32.7876 10.0467 32.5853 10.397L31.8025 11.7528C31.6003 12.1031 31.7203 12.5511 32.0706 12.7533C32.1859 12.8199 32.3119 12.8516 32.4361 12.8516C32.6892 12.8516 32.9354 12.7201 33.0711 12.4852L33.8539 11.1294C34.0561 10.7791 33.9361 10.3311 33.5858 10.1289Z" fill="black"/>
<path d="M17.9294 37.2467C17.579 37.0443 17.1311 37.1644 16.9289 37.5147L16.1461 38.8706C15.9439 39.2209 16.0639 39.6688 16.4142 39.8711C16.5295 39.9377 16.6555 39.9693 16.7797 39.9693C17.0328 39.9693 17.279 39.8379 17.4147 39.603L18.1975 38.2472C18.3997 37.8969 18.2797 37.4489 17.9294 37.2467Z" fill="black"/>
<path d="M39.8712 16.4141C39.6689 16.0638 39.2209 15.9438 38.8707 16.146L37.5148 16.9288C37.1645 17.1311 37.0445 17.579 37.2468 17.9293C37.3824 18.1643 37.6286 18.2956 37.8817 18.2956C38.006 18.2956 38.1319 18.264 38.2473 18.1974L39.6031 17.4146C39.9534 17.2123 40.0734 16.7644 39.8712 16.4141Z" fill="black"/>
<path d="M12.7533 32.0706C12.5511 31.7202 12.1031 31.6002 11.7528 31.8025L10.397 32.5853C10.0467 32.7876 9.92667 33.2355 10.1289 33.5858C10.2646 33.8208 10.5108 33.9521 10.7639 33.9521C10.8881 33.9521 11.0141 33.9205 11.1294 33.8539L12.4853 33.0711C12.8356 32.8689 12.9556 32.421 12.7533 32.0706Z" fill="black"/>
<path d="M18.1975 11.7528L17.4147 10.397C17.2124 10.0466 16.7645 9.92658 16.4142 10.1289C16.0639 10.3312 15.9439 10.7791 16.1461 11.1294L16.9289 12.4853C17.0646 12.7202 17.3107 12.8516 17.5639 12.8516C17.6881 12.8516 17.8141 12.8199 17.9294 12.7533C18.2797 12.5511 18.3997 12.1031 18.1975 11.7528Z" fill="black"/>
<path d="M33.8539 38.8706L33.0711 37.5147C32.8689 37.1644 32.4209 37.0443 32.0706 37.2467C31.7203 37.4489 31.6003 37.8969 31.8025 38.2472L32.5853 39.603C32.721 39.838 32.9672 39.9693 33.2203 39.9693C33.3445 39.9693 33.4705 39.9377 33.5858 39.8711C33.9361 39.6688 34.0561 39.2209 33.8539 38.8706Z" fill="black"/>
<path d="M35.9006 23.3229C35.8391 22.9232 35.4659 22.6489 35.0653 22.7104L27.0406 23.945C26.6577 23.2073 25.887 22.7019 25.0001 22.7019C24.6332 22.7019 24.2863 22.7889 23.9783 22.9425L16.1241 15.0883C15.8381 14.8022 15.3743 14.8022 15.0884 15.0883C14.8023 15.3743 14.8023 15.8381 15.0884 16.124L22.9426 23.9782C22.789 24.2862 22.702 24.6331 22.702 25C22.702 26.2672 23.733 27.298 25.0001 27.298C26.1333 27.298 27.0769 26.4733 27.2639 25.3928L35.2882 24.1583C35.6879 24.0967 35.9621 23.7227 35.9006 23.3229ZM25 25.8332C24.5405 25.8332 24.1668 25.4594 24.1668 25C24.1668 24.5406 24.5406 24.1668 25 24.1668C25.4594 24.1668 25.8332 24.5406 25.8332 25C25.8332 25.4594 25.4595 25.8332 25 25.8332Z" fill="black"/>
<path d="M38.1588 9.54522C34.2857 6.24092 29.3422 4.52462 24.2382 4.71387C19.1057 4.90362 14.2776 7.00958 10.6436 10.6436C7.00966 14.2775 4.90371 19.1056 4.71396 24.2381C4.52519 29.3419 6.24101 34.2857 9.54531 38.1587C9.69013 38.3285 9.8958 38.4157 10.1028 38.4157C10.271 38.4157 10.4399 38.3582 10.5778 38.2405C10.8855 37.978 10.9222 37.5157 10.6597 37.208C7.59433 33.615 6.00254 29.0282 6.17773 24.2922C6.3538 19.5304 8.30771 15.0511 11.6794 11.6793C15.0511 8.30753 19.5305 6.35372 24.2923 6.17764C29.0286 6.00255 33.6151 7.59425 37.2081 10.6596C37.5157 10.9221 37.9781 10.8855 38.2406 10.5777C38.5031 10.27 38.4665 9.80772 38.1588 9.54522Z" fill="black"/>
<path d="M40.4548 11.8412C40.1923 11.5335 39.73 11.4968 39.4223 11.7594C39.1146 12.0219 39.0779 12.4842 39.3404 12.7919C42.4058 16.3849 43.9975 20.9718 43.8224 25.7077C43.6463 30.4695 41.6924 34.9488 38.3207 38.3206C34.949 41.6924 30.4696 43.6462 25.7078 43.8223C20.9723 43.9975 16.385 42.4057 12.792 39.3403C12.4844 39.0778 12.022 39.1144 11.7595 39.4222C11.497 39.7299 11.5336 40.1922 11.8413 40.4547C15.5217 43.5946 20.1688 45.3001 25.0015 45.3001C25.2544 45.3001 25.5081 45.2954 25.762 45.286C30.8945 45.0963 35.7226 42.9903 39.3565 39.3563C42.9905 35.7223 45.0965 30.8943 45.2862 25.7618C45.4749 20.6581 43.7591 15.7142 40.4548 11.8412Z" fill="black"/>
</g>
<defs>
<clipPath id="clip0_1_125">
<rect width="50" height="50" fill="white"/>
</clipPath>
</defs>
</svg>
