<svg width="16" height="16" viewBox="0 0 16 16" fill="none" xmlns="http://www.w3.org/2000/svg">
<g clip-path="url(#clip0_0_533)">
<path d="M1.46667 6.13335L1.196 5.75348C1.13543 5.79661 1.08604 5.85358 1.05195 5.91966C1.01786 5.98573 1.00005 6.059 1 6.13335H1.46667ZM8 1.46668L8.27067 1.08682C8.19163 1.03054 8.09702 1.00031 8 1.00031C7.90298 1.00031 7.80837 1.03054 7.72933 1.08682L8 1.46668ZM14.5333 6.13335H15C15 6.059 14.9821 5.98573 14.948 5.91966C14.914 5.85358 14.8646 5.79661 14.804 5.75348L14.5333 6.13335ZM3.33333 8.00002V7.53335H2.86667V8.00002H3.33333ZM12.6667 8.00002H13.1333V7.53335H12.6667V8.00002ZM1.93333 15V6.13335H1V15H1.93333ZM1.73733 6.51322L8.27067 1.84655L7.72933 1.08682L1.196 5.75348L1.73733 6.51322ZM7.72933 1.84655L14.2627 6.51322L14.804 5.75348L8.27067 1.08682L7.72933 1.84655ZM14.0667 6.13335V15H15V6.13335H14.0667ZM3.8 15V8.00002H2.86667V15H3.8ZM3.33333 8.46668H12.6667V7.53335H3.33333V8.46668ZM12.2 8.00002V15H13.1333V8.00002H12.2ZM3.33333 11.2667H12.6667V10.3334H3.33333V11.2667ZM6.6 13.1334H9.4V12.2H6.6V13.1334Z" fill="#1C3D5A"/>
<path d="M1.196 5.75348L1.46667 6.13335H1M1.196 5.75348C1.13543 5.79661 1.08604 5.85358 1.05195 5.91966C1.01786 5.98573 1.00005 6.059 1 6.13335M1.196 5.75348L7.72933 1.08682M1.196 5.75348L1.73733 6.51322L8.27067 1.84655L7.72933 1.08682M1 6.13335H1.93333V15H1V6.13335ZM8.27067 1.08682L8 1.46668L7.72933 1.08682M8.27067 1.08682C8.19163 1.03054 8.09702 1.00031 8 1.00031C7.90298 1.00031 7.80837 1.03054 7.72933 1.08682M8.27067 1.08682L14.804 5.75348M8.27067 1.08682L7.72933 1.84655L14.2627 6.51322L14.804 5.75348M15 6.13335H14.5333L14.804 5.75348M15 6.13335C15 6.059 14.9821 5.98573 14.948 5.91966C14.914 5.85358 14.8646 5.79661 14.804 5.75348M15 6.13335V15H14.0667V6.13335H15ZM3.33333 7.53335V8.00002H2.86667M3.33333 7.53335H2.86667V8.00002M3.33333 7.53335H12.6667M3.33333 7.53335V8.46668H12.6667V7.53335M2.86667 8.00002H3.8V15H2.86667V8.00002ZM13.1333 8.00002H12.6667V7.53335M13.1333 8.00002V7.53335H12.6667M13.1333 8.00002V15H12.2V8.00002H13.1333ZM3.33333 11.2667H12.6667V10.3334H3.33333V11.2667ZM6.6 13.1334H9.4V12.2H6.6V13.1334Z" stroke="#1C3D5A" stroke-width="0.3"/>
</g>
<defs>
<clipPath id="clip0_0_533">
<rect width="16" height="16" fill="white"/>
</clipPath>
</defs>
</svg>
