<svg width="134" height="53" viewBox="0 0 134 53" fill="none" xmlns="http://www.w3.org/2000/svg">
<path d="M6.27017 22.5847H10.7893C11.2572 22.5847 11.6366 22.2036 11.6366 21.7335C11.6366 21.2634 11.2572 20.8823 10.7893 20.8823H6.27017C5.80223 20.8823 5.42285 21.2634 5.42285 21.7335C5.42285 22.2036 5.80223 22.5847 6.27017 22.5847Z" fill="#1C3D5A"/>
<path d="M11.6366 24.4573C11.6366 23.9872 11.2572 23.6061 10.7893 23.6061H6.27017C5.80223 23.6061 5.42285 23.9872 5.42285 24.4573C5.42285 24.9274 5.80223 25.3085 6.27017 25.3085H10.7893C11.2572 25.3085 11.6366 24.9274 11.6366 24.4573Z" fill="#1C3D5A"/>
<path fill-rule="evenodd" clip-rule="evenodd" d="M43.164 1.91653C43.1624 1.91176 43.1602 1.90745 43.1587 1.90268C42.8307 0.803519 41.8149 0 40.6154 0C40.2763 0 39.9523 0.0649159 39.6539 0.1817C39.629 0.189646 24.5352 6.58384 24.5229 6.58973C23.7931 6.89174 23.2027 7.46497 22.8756 8.18388C22.8705 8.19454 22.8647 8.20461 22.86 8.21551L19.7315 15.4348H18.0199C17.552 15.4348 17.1725 15.8159 17.1725 16.286V18.1586H4.4626C3.49699 18.1586 2.71145 18.9477 2.71145 19.9177V26.2732C2.71145 27.2432 3.49699 28.0323 4.4626 28.0323H6.32673V29.9617H3.55879C1.59648 29.9617 0 31.5654 0 33.5366C0 35.5079 1.59648 37.1116 3.55879 37.1116H27.0581C29.0204 37.1116 30.6168 35.5079 30.6168 33.5366C30.6168 31.5654 29.0204 29.9617 27.0581 29.9617H24.2901V28.0323H27.0581C27.319 28.0323 27.5653 27.9116 27.726 27.705C27.8867 27.4985 27.9435 27.229 27.8801 26.9747L25.9846 19.3585L28.2039 11.6917L39.1054 6.06551L40.6393 5.33353C41.2695 5.32781 41.8479 5.10096 42.301 4.72602L43.164 1.91653ZM1.69466 33.5366C1.69466 34.5692 2.53092 35.4093 3.55879 35.4093C4.58665 35.4093 5.42291 34.5692 5.42291 33.5366C5.42291 32.5041 4.58665 31.664 3.55879 31.664C2.53092 31.664 1.69466 32.5041 1.69466 33.5366ZM28.9222 33.5366C28.9222 32.5041 28.0859 31.664 27.0581 31.664C26.0302 31.664 25.1939 32.5041 25.1939 33.5366C25.1939 34.5692 26.0302 35.4093 27.0581 35.4093C28.0859 35.4093 28.9222 34.5692 28.9222 33.5366ZM22.9353 17.1371H18.8672V22.6982H25.069L23.8669 17.8678C23.7598 17.4376 23.3767 17.1371 22.9353 17.1371ZM22.5955 28.0323H18.0199H8.02139V29.9617H22.5955V28.0323ZM4.40611 26.2732C4.40611 26.3045 4.43142 26.33 4.4626 26.33H17.1725V19.861H4.4626C4.43142 19.861 4.40611 19.8864 4.40611 19.9177V26.2732ZM6.58874 35.4093H24.0281C23.6931 34.8642 23.4994 34.2228 23.4994 33.5366C23.4994 32.8505 23.6933 32.2091 24.0282 31.664H6.58874C6.9237 32.2091 7.11756 32.8505 7.11756 33.5366C7.11756 34.2228 6.9237 34.8642 6.58874 35.4093ZM18.8672 24.4006V26.33H25.9728L25.4927 24.4006H18.8672ZM22.9353 15.4348C23.7875 15.4348 24.5601 15.8408 25.0501 16.4902L26.1879 12.5592C26.0296 12.5843 25.8675 12.5975 25.7024 12.5975C24.7373 12.5975 23.8736 12.1531 23.3032 11.4574L21.5797 15.4348H22.9353ZM24.2901 9.47654C24.2901 10.2588 24.9236 10.8951 25.7024 10.8951C26.4811 10.8951 27.1145 10.2588 27.1145 9.47654C27.1145 8.69419 26.4811 8.05787 25.7024 8.05787C24.9236 8.05787 24.2901 8.69419 24.2901 9.47654ZM27.7004 7.08903C28.3751 7.65972 28.8057 8.51287 28.809 9.46564L38.4756 4.47666L38.1765 3.72251C38.1751 3.71899 38.1742 3.71536 38.1729 3.71184C38.0454 3.41245 37.9718 3.08503 37.9623 2.74161L27.7004 7.08903ZM40.6154 1.70237C40.0858 1.70237 39.655 2.13511 39.655 2.66704C39.655 3.19897 40.0858 3.63172 40.6154 3.63172C41.1449 3.63172 41.5757 3.19897 41.5757 2.66704C41.5757 2.13511 41.1449 1.70237 40.6154 1.70237Z" fill="#1C3D5A"/>
<path d="M8.98206 34.3878H21.6355C22.1035 34.3878 22.4829 34.0067 22.4829 33.5366C22.4829 33.0666 22.1035 32.6854 21.6355 32.6854H8.98206C8.51411 32.6854 8.13477 33.0666 8.13477 33.5366C8.13477 34.0067 8.51411 34.3878 8.98206 34.3878Z" fill="#1C3D5A"/>
<path fill-rule="evenodd" clip-rule="evenodd" d="M63.0978 8.71108L40.377 5.38835L40.5128 3.68791L63.0473 6.98333C63.0861 6.8588 63.1336 6.7371 63.1898 6.61928L41.9279 2.1704L41.0135 0.750221L41.0939 0.256843L64.8124 5.21976C65.5009 5.00711 66.2579 5.08368 66.9135 5.46405L70.6612 7.63767C71.0665 7.87271 71.2054 8.39328 70.9715 8.80038L66.0005 17.4496C65.7665 17.8567 65.2481 17.9962 64.8429 17.7611C64.4377 17.5261 64.2987 17.0055 64.5327 16.5984L65.2481 15.3541L63.0978 8.71108ZM69.0803 8.68634L66.3881 13.3707L64.6729 8.07205C64.4835 7.48716 64.8611 7.12223 64.9819 7.02415C65.1021 6.92631 65.5361 6.63071 66.0662 6.93832L69.0803 8.68634Z" fill="#1C3D5A"/>
<path d="M39.4472 50.1644C38.9904 50.1644 38.581 50.067 38.2181 49.8722C37.8551 49.6712 37.5707 49.3947 37.3643 49.0428L37.8709 48.7318C38.0275 49.0082 38.2398 49.2219 38.5089 49.3727C38.7781 49.5235 39.0877 49.5989 39.4378 49.5989C39.9134 49.5989 40.2887 49.4764 40.5637 49.2313C40.8452 48.98 40.9859 48.647 40.9859 48.2323C40.9859 47.9684 40.9267 47.7358 40.8076 47.5348C40.695 47.3274 40.5326 47.1672 40.3197 47.0541C40.1069 46.941 39.8506 46.8845 39.5504 46.8845H38.9124V46.3566H39.5598C39.7914 46.3566 39.9943 46.3032 40.1696 46.1964C40.345 46.0833 40.4822 45.9356 40.5824 45.7534C40.6827 45.5712 40.7326 45.367 40.7326 45.1408C40.7326 44.8957 40.6763 44.6821 40.5637 44.4999C40.4575 44.3177 40.3039 44.1731 40.1039 44.0663C39.9098 43.9595 39.6817 43.9061 39.419 43.9061C39.1 43.9061 38.8185 43.9784 38.5746 44.1229C38.3307 44.2674 38.1366 44.4685 37.9929 44.7261L37.5144 44.4056C37.7085 44.06 37.9647 43.7899 38.2837 43.5951C38.6092 43.4003 38.9968 43.3029 39.4472 43.3029C39.8289 43.3029 40.1602 43.3783 40.4417 43.5291C40.7296 43.6736 40.9548 43.8778 41.1173 44.1417C41.2861 44.3993 41.3706 44.7041 41.3706 45.056C41.3706 45.3953 41.2861 45.7032 41.1173 45.9796C40.9548 46.2498 40.7167 46.454 40.4042 46.5923C40.7983 46.6991 41.1014 46.9064 41.3143 47.2143C41.533 47.5222 41.6427 47.8804 41.6427 48.2888C41.6427 48.6784 41.5488 49.0145 41.3612 49.2973C41.1735 49.5738 40.9138 49.7874 40.5824 49.9382C40.257 50.089 39.8788 50.1644 39.4472 50.1644ZM42.3645 48.6658C42.3645 48.3579 42.4519 48.094 42.6273 47.8741C42.802 47.6479 43.043 47.4751 43.3497 47.3557C43.6623 47.2301 44.0217 47.1672 44.4287 47.1672C44.6662 47.1672 44.9131 47.1861 45.1699 47.2238C45.4262 47.2615 45.6543 47.318 45.8548 47.3934V46.9787C45.8548 46.564 45.7329 46.2341 45.4889 45.9891C45.245 45.744 44.9072 45.6215 44.4756 45.6215C44.2129 45.6215 43.9531 45.6717 43.6969 45.7723C43.4465 45.8665 43.1838 46.0079 42.9087 46.1964L42.6648 45.744C42.9838 45.5241 43.2963 45.3607 43.603 45.2539C43.9091 45.1408 44.2223 45.0842 44.5413 45.0842C45.1418 45.0842 45.6168 45.257 45.9674 45.6026C46.3175 45.9482 46.4928 46.4257 46.4928 47.0353V49.3067C46.4928 49.3947 46.5116 49.4606 46.5491 49.5047C46.5867 49.5424 46.6459 49.5643 46.7274 49.5706V50.0796C46.6582 50.0859 46.599 50.0921 46.5491 50.0984C46.4987 50.1047 46.4612 50.1047 46.4365 50.0984C46.28 50.0921 46.1609 50.0419 46.08 49.9476C45.9985 49.8534 45.9545 49.7528 45.9486 49.646L45.9393 49.2879C45.72 49.5706 45.4355 49.7905 45.0855 49.9476C44.7348 50.0984 44.3783 50.1738 44.0159 50.1738C43.7027 50.1738 43.4183 50.1079 43.162 49.9759C42.9117 49.8377 42.7146 49.6555 42.571 49.4293C42.4331 49.1967 42.3645 48.9423 42.3645 48.6658ZM45.639 49.0428C45.7076 48.9549 45.761 48.87 45.7985 48.7883C45.8361 48.7066 45.8548 48.6344 45.8548 48.5716V47.8552C45.642 47.7735 45.4197 47.7107 45.1887 47.6667C44.9635 47.6227 44.7348 47.6008 44.5038 47.6008C44.0469 47.6008 43.6781 47.6919 43.3966 47.8741C43.1151 48.0563 42.9744 48.3045 42.9744 48.6187C42.9744 48.8009 43.0213 48.9737 43.1151 49.1371C43.209 49.2942 43.3462 49.4261 43.528 49.5329C43.7092 49.6335 43.922 49.6837 44.166 49.6837C44.4721 49.6837 44.7571 49.6241 45.0198 49.5047C45.2884 49.3852 45.4948 49.2313 45.639 49.0428ZM47.8621 50.0796V45.1691H51.7934V50.0796H51.1554V45.744H48.5001V50.0796H47.8621ZM55.9996 50.0796V48.0249C55.7997 48.1192 55.5903 48.1914 55.371 48.2417C55.1523 48.2857 54.9177 48.3077 54.6673 48.3077C54.1296 48.3077 53.7232 48.1694 53.4476 47.8929C53.179 47.6165 53.0442 47.1924 53.0442 46.6206V45.1691H53.6822V46.5357C53.6822 46.9756 53.7701 47.296 53.9449 47.4971C54.1267 47.6981 54.414 47.7987 54.8081 47.7987C55.0274 47.7987 55.2461 47.7735 55.4649 47.7233C55.6842 47.673 55.8624 47.6071 55.9996 47.5254V45.1691H56.6377V50.0796H55.9996ZM57.6475 48.6658C57.6475 48.3579 57.7354 48.094 57.9102 47.8741C58.0855 47.6479 58.3265 47.4751 58.6326 47.3557C58.9458 47.2301 59.3052 47.1672 59.7116 47.1672C59.9497 47.1672 60.1966 47.1861 60.4528 47.2238C60.7097 47.2615 60.9378 47.318 61.1377 47.3934V46.9787C61.1377 46.564 61.0158 46.2341 60.7718 45.9891C60.5279 45.744 60.1901 45.6215 59.7585 45.6215C59.4958 45.6215 59.2366 45.6717 58.9798 45.7723C58.73 45.8665 58.4672 46.0079 58.1916 46.1964L57.9477 45.744C58.2667 45.5241 58.5798 45.3607 58.8859 45.2539C59.1926 45.1408 59.5052 45.0842 59.8242 45.0842C60.4247 45.0842 60.9002 45.257 61.2503 45.6026C61.601 45.9482 61.7757 46.4257 61.7757 47.0353V49.3067C61.7757 49.3947 61.7945 49.4606 61.832 49.5047C61.8696 49.5424 61.9294 49.5643 62.0103 49.5706V50.0796C61.9417 50.0859 61.8825 50.0921 61.832 50.0984C61.7822 50.1047 61.7447 50.1047 61.7195 50.0984C61.5635 50.0921 61.4444 50.0419 61.3629 49.9476C61.282 49.8534 61.238 49.7528 61.2316 49.646L61.2222 49.2879C61.0035 49.5706 60.719 49.7905 60.3684 49.9476C60.0183 50.0984 59.6618 50.1738 59.2988 50.1738C58.9862 50.1738 58.7018 50.1079 58.445 49.9759C58.1952 49.8377 57.9981 49.6555 57.8539 49.4293C57.7166 49.1967 57.6475 48.9423 57.6475 48.6658ZM60.9219 49.0428C60.9911 48.9549 61.0439 48.87 61.0814 48.7883C61.119 48.7066 61.1377 48.6344 61.1377 48.5716V47.8552C60.9255 47.7735 60.7032 47.7107 60.4716 47.6667C60.2464 47.6227 60.0183 47.6008 59.7867 47.6008C59.3304 47.6008 58.961 47.6919 58.6795 47.8741C58.3981 48.0563 58.2573 48.3045 58.2573 48.6187C58.2573 48.8009 58.3042 48.9737 58.3981 49.1371C58.4919 49.2942 58.6297 49.4261 58.8109 49.5329C58.9927 49.6335 59.2049 49.6837 59.4489 49.6837C59.7556 49.6837 60.04 49.6241 60.3027 49.5047C60.5719 49.3852 60.7783 49.2313 60.9219 49.0428ZM65.2748 50.1738C64.9183 50.1738 64.5899 50.1079 64.2897 49.9759C63.9959 49.8377 63.7361 49.6492 63.5109 49.4104C63.2922 49.1717 63.1198 48.8983 62.9949 48.5904C62.8758 48.2825 62.8166 47.9558 62.8166 47.6102C62.8166 47.1452 62.9198 46.7211 63.1262 46.3378C63.3327 45.9545 63.6206 45.6498 63.9894 45.4236C64.3583 45.1974 64.784 45.0842 65.2655 45.0842C65.7223 45.0842 66.1257 45.191 66.4758 45.4047C66.8259 45.6121 67.0857 45.8948 67.2545 46.253L66.6353 46.4509C66.4975 46.1995 66.304 46.0048 66.0536 45.8665C65.8096 45.722 65.5375 45.6498 65.2373 45.6498C64.9118 45.6498 64.6151 45.7346 64.346 45.9042C64.0768 46.0739 63.861 46.3064 63.6986 46.6017C63.542 46.897 63.464 47.2332 63.464 47.6102C63.464 47.9809 63.5455 48.3171 63.708 48.6187C63.8704 48.9203 64.0862 49.1622 64.3554 49.3444C64.6245 49.5204 64.9212 49.6083 65.2467 49.6083C65.4596 49.6083 65.6624 49.5706 65.8565 49.4952C66.0565 49.4198 66.2289 49.3193 66.3726 49.1936C66.5227 49.0617 66.623 48.9203 66.6728 48.7695L67.3015 48.958C67.2141 49.1905 67.0669 49.401 66.8605 49.5895C66.6605 49.7717 66.4224 49.9162 66.1474 50.023C65.8782 50.1236 65.5874 50.1738 65.2748 50.1738ZM69.5233 50.0796V45.744H67.7782V45.1691H71.9065V45.744H70.1614V50.0796H69.5233ZM72.7656 50.0796V45.1785H73.4036V49.2125L76.3778 45.1691H76.9502V50.0796H76.3122V46.1116L73.3848 50.0796H72.7656ZM80.7278 50.0796V45.1785H81.3658V49.2125L84.3401 45.1691H84.9124V50.0796H84.2744V46.1116L81.347 50.0796H80.7278ZM87.7248 50.1361C87.2744 50.1361 86.8898 50.0513 86.5708 49.8817C86.2518 49.7057 86.0078 49.4606 85.8389 49.1465L86.3643 48.9109C86.4834 49.1308 86.6552 49.3036 86.8804 49.4293C87.1056 49.5487 87.3776 49.6083 87.6967 49.6083C88.0784 49.6083 88.3816 49.5204 88.6068 49.3444C88.8384 49.1685 88.9539 48.9328 88.9539 48.6375C88.9539 48.3673 88.8636 48.1506 88.6818 47.9872C88.5006 47.8239 88.2502 47.739 87.9312 47.7327H87.4339V47.2897H87.9687C88.1066 47.2897 88.2315 47.252 88.344 47.1766C88.4566 47.1012 88.5446 47.0007 88.6068 46.875C88.6695 46.7494 88.7006 46.608 88.7006 46.4509C88.7006 46.2058 88.6132 46.0079 88.4379 45.8571C88.269 45.7063 88.0192 45.6309 87.6873 45.6309C87.4122 45.6309 87.1806 45.6875 86.993 45.8006C86.8118 45.9074 86.6646 46.0676 86.552 46.2812L86.0641 46.0173C86.2084 45.7283 86.4206 45.5021 86.7021 45.3387C86.99 45.1754 87.3249 45.0937 87.706 45.0937C88.0192 45.0937 88.2913 45.1471 88.5223 45.2539C88.7604 45.3545 88.9445 45.5021 89.0759 45.6969C89.2137 45.8854 89.2823 46.1147 89.2823 46.3849C89.2823 46.6174 89.226 46.8342 89.1134 47.0353C89.0008 47.2301 88.8448 47.3777 88.6443 47.4782C88.9322 47.5662 89.1545 47.7202 89.3104 47.9401C89.4735 48.16 89.5544 48.4176 89.5544 48.7129C89.5544 49.0082 89.4764 49.2627 89.3198 49.4764C89.1638 49.69 88.948 49.8534 88.6724 49.9665C88.3974 50.0796 88.0813 50.1361 87.7248 50.1361ZM97.6222 49.4952V50.0796H93.1467V43.3877H97.5377V43.9721H93.8035V46.3849H97.0592V46.941H93.8035V49.4952H97.6222ZM98.6777 50.0796V45.1691H101.117C101.392 45.1691 101.624 45.2287 101.811 45.3482C101.999 45.4613 102.14 45.6089 102.234 45.7911C102.333 45.9733 102.384 46.1681 102.384 46.3755C102.384 46.6394 102.321 46.8782 102.196 47.0918C102.071 47.2992 101.889 47.4563 101.652 47.5631C101.933 47.6448 102.162 47.7924 102.337 48.0061C102.512 48.2197 102.6 48.4773 102.6 48.7789C102.6 49.0428 102.534 49.2721 102.403 49.467C102.277 49.6618 102.102 49.8126 101.877 49.9194C101.658 50.0262 101.404 50.0796 101.117 50.0796H98.6777ZM99.2875 49.6178H101.098C101.261 49.6178 101.408 49.5769 101.539 49.4952C101.677 49.4073 101.783 49.2942 101.858 49.1559C101.939 49.0177 101.98 48.8732 101.98 48.7224C101.98 48.559 101.943 48.4113 101.868 48.2794C101.793 48.1411 101.692 48.0312 101.567 47.9495C101.442 47.8678 101.298 47.827 101.136 47.827H99.2875V49.6178ZM99.2875 47.384H100.948C101.111 47.384 101.254 47.34 101.38 47.252C101.505 47.1641 101.602 47.051 101.671 46.9127C101.739 46.7745 101.774 46.63 101.774 46.4792C101.774 46.253 101.699 46.055 101.549 45.8854C101.404 45.7157 101.217 45.6309 100.986 45.6309H99.2875V47.384ZM106.204 50.1738C105.797 50.1738 105.431 50.067 105.106 49.8534C104.787 49.6397 104.534 49.3758 104.346 49.0617V52.0872H103.708V45.1691H104.28V46.121C104.474 45.8131 104.734 45.5649 105.059 45.3764C105.384 45.1816 105.732 45.0842 106.1 45.0842C106.438 45.0842 106.748 45.1565 107.029 45.301C107.311 45.4393 107.555 45.6278 107.761 45.8665C107.968 46.1053 108.127 46.3786 108.24 46.6865C108.359 46.9881 108.418 47.3023 108.418 47.629C108.418 48.0878 108.324 48.5119 108.136 48.9014C107.955 49.2848 107.699 49.5926 107.367 49.8251C107.036 50.0576 106.648 50.1738 106.204 50.1738ZM106.025 49.6083C106.295 49.6083 106.536 49.5549 106.748 49.4481C106.961 49.335 107.142 49.1842 107.292 48.9957C107.449 48.8072 107.568 48.5967 107.649 48.3642C107.73 48.1255 107.771 47.8804 107.771 47.629C107.771 47.3651 107.724 47.1138 107.63 46.875C107.542 46.6363 107.414 46.4257 107.245 46.2435C107.076 46.0613 106.883 45.9168 106.663 45.81C106.445 45.7032 106.207 45.6498 105.95 45.6498C105.788 45.6498 105.619 45.6812 105.444 45.744C105.269 45.8069 105.1 45.8979 104.937 46.0173C104.781 46.1304 104.65 46.2593 104.543 46.4038C104.437 46.5483 104.371 46.7023 104.346 46.8656V48.3736C104.446 48.6061 104.58 48.8166 104.749 49.0051C104.918 49.1873 105.112 49.335 105.331 49.4481C105.556 49.5549 105.788 49.6083 106.025 49.6083ZM111.582 50.1738C111.231 50.1738 110.906 50.1079 110.606 49.9759C110.312 49.8377 110.056 49.6523 109.836 49.4198C109.624 49.1811 109.458 48.9109 109.339 48.6093C109.221 48.3014 109.161 47.9778 109.161 47.6385C109.161 47.2866 109.221 46.9599 109.339 46.6583C109.458 46.3503 109.627 46.0802 109.846 45.8477C110.065 45.6089 110.321 45.4236 110.615 45.2916C110.915 45.1533 111.241 45.0842 111.591 45.0842C111.942 45.0842 112.264 45.1533 112.557 45.2916C112.852 45.4236 113.108 45.6089 113.327 45.8477C113.546 46.0802 113.715 46.3503 113.833 46.6583C113.952 46.9599 114.012 47.2866 114.012 47.6385C114.012 47.9778 113.952 48.3014 113.833 48.6093C113.715 48.9109 113.546 49.1811 113.327 49.4198C113.114 49.6523 112.858 49.8377 112.557 49.9759C112.264 50.1079 111.938 50.1738 111.582 50.1738ZM109.808 47.6479C109.808 48.0124 109.887 48.3454 110.043 48.647C110.206 48.9423 110.422 49.1779 110.69 49.3538C110.959 49.5235 111.257 49.6083 111.582 49.6083C111.907 49.6083 112.204 49.5204 112.473 49.3444C112.742 49.1685 112.958 48.9297 113.12 48.6281C113.283 48.3202 113.364 47.9872 113.364 47.629C113.364 47.2646 113.283 46.9316 113.12 46.63C112.958 46.3284 112.742 46.0896 112.473 45.9137C112.204 45.7377 111.907 45.6498 111.582 45.6498C111.257 45.6498 110.959 45.7409 110.69 45.9231C110.428 46.1053 110.215 46.3472 110.052 46.6488C109.89 46.9441 109.808 47.2772 109.808 47.6479ZM115.069 50.0796V45.1691H119.001V50.0796H118.363V45.744H115.708V50.0796H115.069ZM120.402 50.0796V45.1691H121.04V46.9033H122.147C122.704 46.9033 123.123 47.0478 123.405 47.3369C123.692 47.6196 123.836 47.9935 123.836 48.4585C123.836 48.7601 123.774 49.0334 123.649 49.2784C123.523 49.5235 123.339 49.7183 123.095 49.8628C122.857 50.0073 122.557 50.0796 122.194 50.0796H120.402ZM121.04 49.5706H122.11C122.366 49.5706 122.573 49.5204 122.729 49.4198C122.885 49.313 123.001 49.1779 123.076 49.0145C123.151 48.8449 123.189 48.6627 123.189 48.4679C123.189 48.2794 123.154 48.1066 123.086 47.9495C123.023 47.7862 122.91 47.6573 122.748 47.5631C122.591 47.4625 122.373 47.4123 122.091 47.4123H121.04V49.5706ZM124.728 50.0796V45.1785H125.366V50.0796H124.728Z" fill="black"/>
<path d="M46.6154 34.8342V37.1151H37.3643V23.7313H46.4465V26.0122H39.9538V29.2356H45.5646V31.3469H39.9538V34.8342H46.6154Z" fill="black"/>
<path d="M60.3469 26.0122H56.0873V37.1151H53.5165V26.0122H49.2568V23.7314H60.3469V26.0122Z" fill="#1E1E1E"/>
<path d="M63.6543 37.1151V23.7314H66.2251V33.4581L72.6803 23.7314H75.0822V37.1151H72.5114V27.5014L66.1313 37.1151H63.6543ZM77.7017 37.1151V27.2375H80.3288L83.4062 32.9492L86.5024 27.2375H89.092V37.1151H86.7088V30.7248L84.1943 35.362H82.6181L80.0848 30.7248V37.1151H77.7017ZM91.4089 37.1151V27.2375H100.228V37.1151H97.7139V29.443H93.9234V37.1151H91.4089ZM107.055 37.3036C106.254 37.3036 105.535 37.1716 104.897 36.9077C104.259 36.6313 103.715 36.2543 103.265 35.7767C102.827 35.2992 102.489 34.7525 102.252 34.1367C102.013 33.521 101.895 32.8738 101.895 32.1952C101.895 31.504 102.013 30.8505 102.252 30.2347C102.489 29.619 102.827 29.0723 103.265 28.5947C103.715 28.1172 104.259 27.7465 104.897 27.4826C105.535 27.2061 106.254 27.0679 107.055 27.0679C107.856 27.0679 108.569 27.2061 109.195 27.4826C109.833 27.7465 110.377 28.1172 110.827 28.5947C111.278 29.0723 111.615 29.619 111.84 30.2347C112.078 30.8505 112.197 31.504 112.197 32.1952C112.197 32.8738 112.078 33.521 111.84 34.1367C111.615 34.7525 111.278 35.2992 110.827 35.7767C110.389 36.2543 109.851 36.6313 109.213 36.9077C108.575 37.1716 107.856 37.3036 107.055 37.3036ZM104.485 32.1952C104.485 32.7732 104.597 33.2885 104.822 33.7409C105.048 34.1807 105.354 34.5263 105.742 34.7777C106.129 35.029 106.567 35.1547 107.055 35.1547C107.53 35.1547 107.962 35.029 108.35 34.7777C108.738 34.5138 109.044 34.1619 109.27 33.722C109.507 33.2696 109.626 32.7544 109.626 32.1763C109.626 31.6108 109.507 31.1018 109.27 30.6494C109.044 30.197 108.738 29.8452 108.35 29.5938C107.962 29.3425 107.53 29.2168 107.055 29.2168C106.567 29.2168 106.129 29.3488 105.742 29.6127C105.354 29.864 105.048 30.2159 104.822 30.6683C104.597 31.1081 104.485 31.6171 104.485 32.1952ZM119.786 37.3036C119.023 37.3036 118.347 37.134 117.76 36.7946C117.184 36.4428 116.733 35.9715 116.409 35.3809V41.1302H113.894V27.2375H116.09V28.9341C116.465 28.356 116.94 27.9036 117.516 27.5768C118.091 27.2375 118.748 27.0679 119.486 27.0679C120.149 27.0679 120.756 27.1998 121.306 27.4637C121.869 27.7276 122.357 28.0983 122.77 28.5759C123.183 29.0409 123.502 29.5813 123.727 30.197C123.964 30.8002 124.083 31.4537 124.083 32.1575C124.083 33.1125 123.896 33.9796 123.52 34.7588C123.158 35.538 122.651 36.16 122.001 36.625C121.363 37.0774 120.624 37.3036 119.786 37.3036ZM118.942 35.1547C119.329 35.1547 119.68 35.073 119.993 34.9096C120.305 34.7463 120.574 34.5263 120.8 34.2498C121.037 33.9608 121.212 33.6403 121.325 33.2885C121.45 32.924 121.513 32.547 121.513 32.1575C121.513 31.7428 121.443 31.3594 121.306 31.0076C121.181 30.6557 120.993 30.3478 120.743 30.0839C120.493 29.8075 120.199 29.5938 119.861 29.443C119.536 29.2922 119.179 29.2168 118.792 29.2168C118.554 29.2168 118.31 29.2608 118.06 29.3488C117.822 29.4242 117.591 29.5373 117.366 29.6881C117.14 29.8389 116.94 30.0148 116.765 30.2159C116.602 30.4169 116.484 30.6369 116.409 30.8756V33.1942C116.559 33.5587 116.759 33.8917 117.009 34.1933C117.272 34.4949 117.572 34.7337 117.91 34.9096C118.248 35.073 118.591 35.1547 118.942 35.1547ZM128.058 37.1151V29.443H124.943V27.2375H133.706V29.443H130.572V37.1151H128.058Z" fill="#1C3D5A"/>
</svg>
