<svg width="261" height="63" viewBox="0 0 261 63" fill="none" xmlns="http://www.w3.org/2000/svg">
<g clip-path="url(#clip0_0_539)">
<mask id="mask0_0_539" style="mask-type:luminance" maskUnits="userSpaceOnUse" x="0" y="0" width="261" height="63">
<path d="M261 0.5H0V62.5H261V0.5Z" fill="white"/>
</mask>
<g mask="url(#mask0_0_539)">
<mask id="mask1_0_539" style="mask-type:luminance" maskUnits="userSpaceOnUse" x="0" y="0" width="261" height="63">
<path d="M261 0.5H0V62.5H261V0.5Z" fill="white"/>
</mask>
<g mask="url(#mask1_0_539)">
<path d="M66.4198 45.8506V49.0948H53.1802V30.0591H66.1781V33.3032H56.8862V37.8878H64.9159V40.8907H56.8862V45.8506H66.4198ZM68.8813 49.0948V35.0459H76.723C77.6898 35.0459 78.4686 35.2068 79.0595 35.5285C79.6682 35.8502 80.1158 36.2702 80.4022 36.7886C80.6887 37.307 80.8319 37.861 80.8319 38.4509C80.8319 39.2373 80.6529 39.9255 80.2948 40.5153C79.9547 41.1051 79.4176 41.5609 78.6835 41.8826C79.507 42.115 80.1784 42.5171 80.6976 43.0891C81.2169 43.6432 81.4764 44.3761 81.4764 45.2876C81.4764 46.1634 81.2706 46.8873 80.8588 47.4593C80.447 48.0134 79.8561 48.4245 79.0863 48.6926C78.3165 48.9607 77.4034 49.0948 76.3471 49.0948H68.8813ZM72.2919 46.655H76.2397C76.5619 46.655 76.8573 46.5745 77.1259 46.4137C77.3944 46.2528 77.6003 46.0383 77.7436 45.7702C77.9047 45.5021 77.9853 45.2072 77.9853 44.8855C77.9853 44.5459 77.9137 44.251 77.7704 44.0007C77.6271 43.7326 77.4213 43.5271 77.1527 43.3841C76.9021 43.2232 76.6066 43.1428 76.2665 43.1428H72.2919V46.655ZM72.2919 40.8907H75.81C76.1322 40.8907 76.4187 40.8102 76.6693 40.6494C76.92 40.4885 77.108 40.274 77.2333 40.0059C77.3766 39.7378 77.4481 39.4429 77.4481 39.1211C77.4481 38.6564 77.296 38.2722 76.9916 37.9683C76.7052 37.6465 76.3202 37.4857 75.8368 37.4857H72.2919V40.8907ZM92.5249 49.3629C91.433 49.3629 90.4663 49.1216 89.6245 48.639C88.8012 48.1385 88.1567 47.4683 87.6909 46.6282V54.8055H84.0923V35.0459H87.2344V37.4589C87.7715 36.6367 88.4521 35.9932 89.2754 35.5285C90.0987 35.0459 91.0386 34.8046 92.0952 34.8046C93.0444 34.8046 93.9121 34.9923 94.7002 35.3676C95.5058 35.743 96.2041 36.2702 96.7949 36.9495C97.3857 37.6108 97.8422 38.3794 98.1645 39.2552C98.5044 40.1131 98.6747 41.0426 98.6747 42.0435C98.6747 43.4019 98.4062 44.6352 97.8691 45.7434C97.3496 46.8516 96.6245 47.7364 95.6938 48.3977C94.7807 49.0411 93.7241 49.3629 92.5249 49.3629ZM91.3164 46.3064C91.8711 46.3064 92.373 46.1902 92.8203 45.9579C93.2676 45.7256 93.6528 45.4127 93.9751 45.0195C94.315 44.6084 94.5659 44.1526 94.727 43.6522C94.9058 43.1338 94.9956 42.5976 94.9956 42.0435C94.9956 41.4537 94.8974 40.9085 94.7002 40.4081C94.5214 39.9076 94.2529 39.4697 93.8945 39.0943C93.5362 38.7011 93.1157 38.3972 92.6323 38.1828C92.1665 37.9683 91.6563 37.861 91.1016 37.861C90.7617 37.861 90.4125 37.9236 90.0542 38.0487C89.7143 38.1559 89.3828 38.3168 89.0605 38.5313C88.7383 38.7458 88.4521 38.996 88.2012 39.282C87.9687 39.568 87.7983 39.8808 87.6909 40.2204V43.5181C87.9058 44.0365 88.1919 44.5101 88.5503 44.9391C88.9263 45.3681 89.356 45.7076 89.8394 45.9579C90.3228 46.1902 90.8154 46.3064 91.3164 46.3064ZM107.612 49.3629C106.466 49.3629 105.436 49.1752 104.523 48.7998C103.61 48.4066 102.831 47.8704 102.187 47.1912C101.561 46.512 101.077 45.7344 100.737 44.8587C100.397 43.9829 100.226 43.0623 100.226 42.0971C100.226 41.1141 100.397 40.1846 100.737 39.3088C101.077 38.433 101.561 37.6555 102.187 36.9763C102.831 36.297 103.61 35.7698 104.523 35.3944C105.436 35.0012 106.466 34.8046 107.612 34.8046C108.758 34.8046 109.779 35.0012 110.673 35.3944C111.586 35.7698 112.365 36.297 113.01 36.9763C113.654 37.6555 114.138 38.433 114.46 39.3088C114.801 40.1846 114.97 41.1141 114.97 42.0971C114.97 43.0623 114.801 43.9829 114.46 44.8587C114.138 45.7344 113.654 46.512 113.01 47.1912C112.384 47.8704 111.613 48.4066 110.7 48.7998C109.787 49.1752 108.758 49.3629 107.612 49.3629ZM103.933 42.0971C103.933 42.9193 104.094 43.6522 104.416 44.2956C104.738 44.9212 105.177 45.4127 105.732 45.7702C106.287 46.1277 106.913 46.3064 107.612 46.3064C108.292 46.3064 108.91 46.1277 109.465 45.7702C110.02 45.3949 110.458 44.8944 110.781 44.2688C111.121 43.6254 111.291 42.8925 111.291 42.0703C111.291 41.266 111.121 40.5421 110.781 39.8986C110.458 39.2552 110.02 38.7547 109.465 38.3972C108.91 38.0397 108.292 37.861 107.612 37.861C106.913 37.861 106.287 38.0487 105.732 38.4241C105.177 38.7816 104.738 39.282 104.416 39.9255C104.094 40.5511 103.933 41.275 103.933 42.0971Z" fill="black"/>
<path d="M129.36 33.3032H123.263V49.0948H119.584V33.3032H113.488V30.0591H129.36V33.3032ZM135.255 49.3629C134.127 49.3629 133.107 49.1752 132.194 48.7998C131.281 48.4066 130.502 47.8793 129.857 47.218C129.213 46.5388 128.711 45.7702 128.353 44.9123C128.013 44.0365 127.843 43.1159 127.843 42.1508C127.843 40.8102 128.138 39.5859 128.729 38.4777C129.338 37.3695 130.197 36.4847 131.307 35.8234C132.435 35.1442 133.76 34.8046 135.282 34.8046C136.821 34.8046 138.137 35.1442 139.23 35.8234C140.322 36.4847 141.154 37.3695 141.727 38.4777C142.318 39.568 142.613 40.7476 142.613 42.0167C142.613 42.2312 142.604 42.4546 142.587 42.687C142.568 42.9015 142.551 43.0802 142.533 43.2232H131.656C131.728 43.9381 131.933 44.5637 132.274 45.0999C132.632 45.6362 133.08 46.0473 133.617 46.3332C134.172 46.6014 134.762 46.7354 135.389 46.7354C136.105 46.7354 136.777 46.5656 137.404 46.226C138.048 45.8685 138.486 45.4038 138.719 44.8318L141.808 45.6898C141.467 46.4047 140.975 47.0393 140.331 47.5934C139.704 48.1474 138.961 48.5854 138.102 48.9071C137.242 49.211 136.293 49.3629 135.255 49.3629ZM131.576 40.9443H138.934C138.862 40.2293 138.656 39.6127 138.317 39.0943C137.994 38.5581 137.565 38.147 137.028 37.861C136.49 37.5571 135.89 37.4052 135.228 37.4052C134.584 37.4052 133.993 37.5571 133.456 37.861C132.936 38.147 132.507 38.5581 132.167 39.0943C131.844 39.6127 131.647 40.2293 131.576 40.9443ZM147.115 35.0459L150.069 39.4429L150.284 39.9255L150.553 39.4429L153.48 35.0459H157.266L152.379 42.0435L157.347 49.0948H153.56L150.526 44.7246L150.284 44.2688L150.069 44.7246L147.061 49.0948H143.275L148.243 42.1239L143.355 35.0459H147.115Z" fill="#1E1E1E"/>
<path d="M159.556 49.0948V30.0591H163.235V43.8935L172.473 30.0591H175.911V49.0948H172.231V35.4212L163.101 49.0948H159.556ZM179.66 49.0948V35.0459H183.419L187.824 43.1696L192.255 35.0459H195.961V49.0948H192.55V40.0059L188.951 46.6014H186.696L183.07 40.0059V49.0948H179.66ZM199.276 49.0948V35.0459H211.898V49.0948H208.3V38.1828H202.875V49.0948H199.276ZM221.669 49.3629C220.522 49.3629 219.493 49.1752 218.58 48.7998C217.667 48.4066 216.889 47.8704 216.244 47.1912C215.617 46.512 215.134 45.7344 214.794 44.8587C214.453 43.9829 214.284 43.0623 214.284 42.0971C214.284 41.1141 214.453 40.1846 214.794 39.3088C215.134 38.433 215.617 37.6555 216.244 36.9763C216.889 36.297 217.667 35.7698 218.58 35.3944C219.493 35.0012 220.522 34.8046 221.669 34.8046C222.814 34.8046 223.835 35.0012 224.73 35.3944C225.643 35.7698 226.422 36.297 227.067 36.9763C227.711 37.6555 228.195 38.433 228.517 39.3088C228.857 40.1846 229.027 41.1141 229.027 42.0971C229.027 43.0623 228.857 43.9829 228.517 44.8587C228.195 45.7344 227.711 46.512 227.067 47.1912C226.44 47.8704 225.67 48.4066 224.757 48.7998C223.844 49.1752 222.814 49.3629 221.669 49.3629ZM217.99 42.0971C217.99 42.9193 218.151 43.6522 218.473 44.2956C218.795 44.9212 219.233 45.4127 219.789 45.7702C220.344 46.1277 220.971 46.3064 221.669 46.3064C222.349 46.3064 222.966 46.1277 223.522 45.7702C224.077 45.3949 224.515 44.8944 224.838 44.2688C225.178 43.6254 225.348 42.8925 225.348 42.0703C225.348 41.266 225.178 40.5421 224.838 39.8986C224.515 39.2552 224.077 38.7547 223.522 38.3972C222.966 38.0397 222.349 37.861 221.669 37.861C220.971 37.861 220.344 38.0487 219.789 38.4241C219.233 38.7816 218.795 39.282 218.473 39.9255C218.151 40.5511 217.99 41.275 217.99 42.0971ZM239.888 49.3629C238.796 49.3629 237.829 49.1216 236.988 48.639C236.164 48.1385 235.519 47.4683 235.054 46.6282V54.8055H231.456V35.0459H234.598V37.4589C235.135 36.6367 235.815 35.9932 236.639 35.5285C237.462 35.0459 238.402 34.8046 239.459 34.8046C240.407 34.8046 241.276 34.9923 242.064 35.3676C242.869 35.743 243.568 36.2702 244.158 36.9495C244.749 37.6108 245.206 38.3794 245.528 39.2552C245.868 40.1131 246.038 41.0426 246.038 42.0435C246.038 43.4019 245.77 44.6352 245.233 45.7434C244.713 46.8516 243.988 47.7364 243.057 48.3977C242.144 49.0411 241.088 49.3629 239.888 49.3629ZM238.68 46.3064C239.235 46.3064 239.736 46.1902 240.184 45.9579C240.631 45.7256 241.016 45.4127 241.339 45.0195C241.678 44.6084 241.929 44.1526 242.091 43.6522C242.269 43.1338 242.359 42.5976 242.359 42.0435C242.359 41.4537 242.26 40.9085 242.064 40.4081C241.884 39.9076 241.616 39.4697 241.258 39.0943C240.9 38.7011 240.479 38.3972 239.996 38.1828C239.53 37.9683 239.02 37.861 238.465 37.861C238.124 37.861 237.775 37.9236 237.418 38.0487C237.077 38.1559 236.746 38.3168 236.424 38.5313C236.102 38.7458 235.815 38.996 235.565 39.282C235.331 39.568 235.162 39.8808 235.054 40.2204V43.5181C235.269 44.0365 235.555 44.5101 235.914 44.9391C236.29 45.3681 236.719 45.7076 237.203 45.9579C237.686 46.1902 238.178 46.3064 238.68 46.3064ZM251.726 49.0948V38.1828H247.268V35.0459H259.809V38.1828H255.324V49.0948H251.726Z" fill="#1C3D5A"/>
<path d="M8.9735 34.298H15.4409C16.1106 34.298 16.6536 33.756 16.6536 33.0874C16.6536 32.4188 16.1106 31.8767 15.4409 31.8767H8.9735C8.3038 31.8767 7.76086 32.4188 7.76086 33.0874C7.76086 33.756 8.3038 34.298 8.9735 34.298Z" fill="#1C3D5A"/>
<path d="M16.6536 36.9613C16.6536 36.2927 16.1106 35.7507 15.4409 35.7507H8.9735C8.3038 35.7507 7.76086 36.2927 7.76086 36.9613C7.76086 37.6299 8.3038 38.172 8.9735 38.172H15.4409C16.1106 38.172 16.6536 37.6299 16.6536 36.9613Z" fill="#1C3D5A"/>
<path fill-rule="evenodd" clip-rule="evenodd" d="M61.7737 4.90165C61.7714 4.89487 61.7683 4.88874 61.766 4.88196C61.2966 3.31863 59.8429 2.17578 58.1262 2.17578C57.641 2.17578 57.1772 2.26811 56.7502 2.43421C56.7146 2.44551 35.1132 11.54 35.0956 11.5483C34.0513 11.9779 33.2063 12.7932 32.7382 13.8157C32.7309 13.8309 32.7225 13.8452 32.7159 13.8607L28.2385 24.1286H25.789C25.1193 24.1286 24.5763 24.6707 24.5763 25.3393V28.0027H6.3866C5.00467 28.0027 3.88047 29.1251 3.88047 30.5047V39.5441C3.88047 40.9238 5.00467 42.0461 6.3866 42.0461H9.05443V44.7902H5.09312C2.28479 44.7902 0 47.0712 0 49.8749C0 52.6785 2.28479 54.9596 5.09312 54.9596H38.7238C41.5322 54.9596 43.8169 52.6785 43.8169 49.8749C43.8169 47.0712 41.5322 44.7902 38.7238 44.7902H34.7625V42.0461H38.7238C39.0973 42.0461 39.4498 41.8744 39.6797 41.5806C39.9097 41.2868 39.991 40.9036 39.9003 40.5419L37.1876 29.7094L40.3637 18.8049L55.9653 10.8027L58.1605 9.76165C59.0624 9.75352 59.8902 9.43087 60.5386 8.89759L61.7737 4.90165ZM2.42529 49.8749C2.42529 51.3435 3.62209 52.5383 5.09312 52.5383C6.56413 52.5383 7.76094 51.3435 7.76094 49.8749C7.76094 48.4063 6.56413 47.2115 5.09312 47.2115C3.62209 47.2115 2.42529 48.4063 2.42529 49.8749ZM41.3917 49.8749C41.3917 48.4063 40.1948 47.2115 38.7238 47.2115C37.2528 47.2115 36.056 48.4063 36.056 49.8749C36.056 51.3435 37.2528 52.5383 38.7238 52.5383C40.1948 52.5383 41.3917 51.3435 41.3917 49.8749ZM32.8236 26.5499H27.0016V34.4594H35.8772L34.1568 27.5892C34.0036 26.9772 33.4553 26.5499 32.8236 26.5499ZM32.3372 42.0461H25.789H11.4797V44.7902H32.3372V42.0461ZM6.30576 39.5441C6.30576 39.5887 6.34198 39.6249 6.3866 39.6249H24.5763V30.424H6.3866C6.34198 30.424 6.30576 30.4602 6.30576 30.5047V39.5441ZM9.4294 52.5383H34.3876C33.9082 51.7631 33.6309 50.8508 33.6309 49.8749C33.6309 48.899 33.9083 47.9867 34.3877 47.2115H9.4294C9.90877 47.9867 10.1862 48.899 10.1862 49.8749C10.1862 50.8508 9.90877 51.7631 9.4294 52.5383ZM27.0016 36.8807V39.6249H37.1707L36.4835 36.8807H27.0016ZM32.8236 24.1286C34.0432 24.1286 35.149 24.7061 35.8502 25.6297L37.4785 20.0387C37.252 20.0743 37.02 20.0932 36.7836 20.0932C35.4025 20.0932 34.1664 19.4611 33.3502 18.4716L30.8835 24.1286H32.8236ZM34.7625 15.6542C34.7625 16.7669 35.6691 17.6719 36.7836 17.6719C37.8981 17.6719 38.8047 16.7669 38.8047 15.6542C38.8047 14.5415 37.8981 13.6365 36.7836 13.6365C35.6691 13.6365 34.7625 14.5415 34.7625 15.6542ZM39.643 12.2585C40.6087 13.0702 41.225 14.2836 41.2297 15.6387L55.0639 8.54293L54.6359 7.4703C54.6339 7.46529 54.6326 7.46013 54.6307 7.45513C54.4483 7.02931 54.3429 6.56361 54.3293 6.07516L39.643 12.2585ZM58.1262 4.59706C57.3684 4.59706 56.7518 5.21254 56.7518 5.96911C56.7518 6.72568 57.3684 7.34117 58.1262 7.34117C58.884 7.34117 59.5005 6.72568 59.5005 5.96911C59.5005 5.21254 58.884 4.59706 58.1262 4.59706Z" fill="#1C3D5A"/>
<path d="M12.8541 51.0856H30.9629C31.6327 51.0856 32.1756 50.5436 32.1756 49.875C32.1756 49.2064 31.6327 48.6643 30.9629 48.6643H12.8541C12.1844 48.6643 11.6415 49.2064 11.6415 49.875C11.6415 50.5436 12.1844 51.0856 12.8541 51.0856Z" fill="#1C3D5A"/>
<path fill-rule="evenodd" clip-rule="evenodd" d="M90.3018 14.5655L57.7852 9.83956L57.9796 7.42101L90.2296 12.1081C90.285 11.931 90.353 11.7579 90.4336 11.5903L60.0048 5.26267L58.6961 3.24275L58.8112 2.54102L92.7557 9.59977C93.741 9.29731 94.8244 9.40623 95.7627 9.94722L101.126 13.0388C101.706 13.3731 101.905 14.1135 101.57 14.6925L94.456 26.9942C94.1211 27.5732 93.3793 27.7716 92.7994 27.4373C92.2195 27.103 92.0205 26.3626 92.3554 25.7836L93.3793 24.0138L90.3018 14.5655ZM98.8636 14.5303L95.0107 21.1928L92.556 13.6566C92.2849 12.8247 92.8254 12.3056 92.9983 12.1661C93.1703 12.027 93.7913 11.6066 94.55 12.0441L98.8636 14.5303Z" fill="#1C3D5A"/>
<path d="M133.666 24.0802C133.012 24.0802 132.426 23.9417 131.906 23.6646C131.387 23.3787 130.98 22.9854 130.685 22.4849L131.41 22.0426C131.634 22.4358 131.938 22.7396 132.323 22.9541C132.708 23.1686 133.151 23.2759 133.652 23.2759C134.333 23.2759 134.87 23.1016 135.263 22.753C135.666 22.3955 135.868 21.9219 135.868 21.3321C135.868 20.9567 135.783 20.626 135.613 20.3401C135.451 20.0452 135.219 19.8173 134.914 19.6564C134.61 19.4955 134.243 19.4151 133.813 19.4151H132.9V18.6644H133.827C134.158 18.6644 134.449 18.5884 134.699 18.4365C134.95 18.2756 135.147 18.0656 135.29 17.8065C135.434 17.5473 135.505 17.2568 135.505 16.9351C135.505 16.5866 135.425 16.2827 135.263 16.0235C135.111 15.7644 134.892 15.5588 134.605 15.4069C134.328 15.255 134.001 15.179 133.625 15.179C133.169 15.179 132.766 15.2818 132.417 15.4873C132.068 15.6928 131.79 15.9789 131.584 16.3453L130.899 15.8895C131.177 15.3979 131.544 15.0137 132 14.7366C132.466 14.4595 133.021 14.321 133.666 14.321C134.212 14.321 134.686 14.4283 135.089 14.6428C135.501 14.8483 135.823 15.1388 136.056 15.5141C136.297 15.8805 136.418 16.314 136.418 16.8145C136.418 17.297 136.297 17.735 136.056 18.1282C135.823 18.5125 135.482 18.8029 135.035 18.9995C135.599 19.1514 136.033 19.4463 136.338 19.8843C136.651 20.3222 136.808 20.8316 136.808 21.4125C136.808 21.9666 136.673 22.4447 136.405 22.8469C136.136 23.2401 135.764 23.544 135.29 23.7584C134.824 23.9729 134.283 24.0802 133.666 24.0802ZM137.841 21.9487C137.841 21.5108 137.966 21.1354 138.217 20.8227C138.467 20.5009 138.812 20.2552 139.251 20.0854C139.698 19.9067 140.212 19.8173 140.795 19.8173C141.135 19.8173 141.488 19.8441 141.856 19.8977C142.222 19.9513 142.549 20.0317 142.836 20.139V19.5492C142.836 18.9593 142.661 18.4901 142.312 18.1416C141.963 17.793 141.48 17.6188 140.862 17.6188C140.486 17.6188 140.114 17.6902 139.747 17.8333C139.389 17.9673 139.013 18.1684 138.619 18.4365L138.27 17.793C138.727 17.4803 139.174 17.2479 139.613 17.096C140.051 16.9351 140.499 16.8547 140.956 16.8547C141.815 16.8547 142.495 17.1004 142.997 17.592C143.498 18.0835 143.749 18.7627 143.749 19.6296V22.8603C143.749 22.9854 143.776 23.0792 143.829 23.1418C143.883 23.1954 143.968 23.2267 144.085 23.2356V23.9595C143.985 23.9685 143.901 23.9774 143.829 23.9863C143.757 23.9953 143.704 23.9953 143.668 23.9863C143.444 23.9774 143.274 23.9059 143.158 23.7719C143.041 23.6378 142.978 23.4948 142.97 23.3429L142.957 22.8335C142.643 23.2356 142.236 23.5484 141.735 23.7719C141.233 23.9863 140.723 24.0936 140.204 24.0936C139.756 24.0936 139.349 23.9997 138.982 23.8121C138.624 23.6154 138.342 23.3563 138.136 23.0346C137.939 22.7039 137.841 22.3419 137.841 21.9487ZM142.527 22.4849C142.625 22.3598 142.701 22.2392 142.755 22.123C142.809 22.0068 142.836 21.9041 142.836 21.8147V20.7959C142.531 20.6796 142.213 20.5903 141.882 20.5277C141.56 20.4652 141.233 20.4339 140.902 20.4339C140.248 20.4339 139.721 20.5635 139.318 20.8227C138.915 21.0818 138.713 21.4349 138.713 21.8817C138.713 22.1408 138.781 22.3867 138.915 22.619C139.049 22.8424 139.246 23.0301 139.506 23.182C139.765 23.325 140.07 23.3965 140.419 23.3965C140.857 23.3965 141.265 23.3116 141.641 23.1418C142.025 22.972 142.32 22.753 142.527 22.4849ZM145.708 23.9595V16.9753H151.335V23.9595H150.422V17.793H146.622V23.9595H145.708ZM157.354 23.9595V21.0372C157.068 21.1712 156.769 21.274 156.455 21.3455C156.142 21.4081 155.806 21.4393 155.448 21.4393C154.678 21.4393 154.097 21.2427 153.702 20.8495C153.318 20.4563 153.125 19.853 153.125 19.0397V16.9753H154.038V18.9191C154.038 19.5447 154.164 20.0005 154.414 20.2864C154.674 20.5724 155.085 20.7154 155.649 20.7154C155.963 20.7154 156.276 20.6796 156.589 20.6082C156.903 20.5367 157.158 20.4429 157.354 20.3267V16.9753H158.267V23.9595H157.354ZM159.713 21.9487C159.713 21.5108 159.839 21.1354 160.089 20.8227C160.34 20.5009 160.684 20.2552 161.123 20.0854C161.571 19.9067 162.085 19.8173 162.667 19.8173C163.007 19.8173 163.361 19.8441 163.728 19.8977C164.095 19.9513 164.422 20.0317 164.708 20.139V19.5492C164.708 18.9593 164.533 18.4901 164.184 18.1416C163.835 17.793 163.352 17.6188 162.734 17.6188C162.358 17.6188 161.987 17.6902 161.619 17.8333C161.262 17.9673 160.886 18.1684 160.491 18.4365L160.142 17.793C160.599 17.4803 161.047 17.2479 161.485 17.096C161.924 16.9351 162.371 16.8547 162.828 16.8547C163.687 16.8547 164.368 17.1004 164.869 17.592C165.371 18.0835 165.621 18.7627 165.621 19.6296V22.8603C165.621 22.9854 165.648 23.0792 165.701 23.1418C165.755 23.1954 165.841 23.2267 165.956 23.2356V23.9595C165.858 23.9685 165.774 23.9774 165.701 23.9863C165.63 23.9953 165.576 23.9953 165.54 23.9863C165.317 23.9774 165.147 23.9059 165.03 23.7719C164.914 23.6378 164.851 23.4948 164.842 23.3429L164.829 22.8335C164.516 23.2356 164.109 23.5484 163.607 23.7719C163.106 23.9863 162.595 24.0936 162.076 24.0936C161.629 24.0936 161.222 23.9997 160.854 23.8121C160.496 23.6154 160.214 23.3563 160.008 23.0346C159.812 22.7039 159.713 22.3419 159.713 21.9487ZM164.399 22.4849C164.498 22.3598 164.573 22.2392 164.627 22.123C164.681 22.0068 164.708 21.9041 164.708 21.8147V20.7959C164.404 20.6796 164.086 20.5903 163.754 20.5277C163.432 20.4652 163.106 20.4339 162.774 20.4339C162.121 20.4339 161.593 20.5635 161.19 20.8227C160.787 21.0818 160.585 21.4349 160.585 21.8817C160.585 22.1408 160.653 22.3867 160.787 22.619C160.921 22.8424 161.118 23.0301 161.378 23.182C161.638 23.325 161.942 23.3965 162.291 23.3965C162.73 23.3965 163.137 23.3116 163.513 23.1418C163.898 22.972 164.193 22.753 164.399 22.4849ZM170.628 24.0936C170.118 24.0936 169.648 23.9997 169.219 23.8121C168.798 23.6154 168.426 23.3473 168.104 23.0077C167.791 22.6682 167.544 22.2794 167.366 21.8415C167.195 21.4035 167.11 20.9389 167.11 20.4473C167.11 19.786 167.258 19.1828 167.554 18.6376C167.849 18.0924 168.261 17.659 168.789 17.3373C169.317 17.0155 169.926 16.8547 170.615 16.8547C171.269 16.8547 171.846 17.0066 172.347 17.3104C172.848 17.6054 173.22 18.0075 173.462 18.5169L172.575 18.7984C172.378 18.4409 172.101 18.164 171.743 17.9673C171.394 17.7618 171.004 17.659 170.575 17.659C170.109 17.659 169.684 17.7796 169.299 18.0209C168.914 18.2622 168.605 18.5929 168.373 19.0129C168.149 19.4329 168.037 19.9111 168.037 20.4473C168.037 20.9746 168.154 21.4527 168.386 21.8817C168.619 22.3107 168.927 22.6548 169.313 22.9139C169.698 23.1642 170.122 23.2893 170.588 23.2893C170.893 23.2893 171.183 23.2356 171.461 23.1284C171.747 23.0212 171.994 22.8781 172.2 22.6994C172.414 22.5117 172.558 22.3107 172.629 22.0962L173.529 22.3643C173.404 22.695 173.193 22.9943 172.898 23.2624C172.612 23.5216 172.271 23.7272 171.877 23.8791C171.492 24.0221 171.076 24.0936 170.628 24.0936ZM176.709 23.9595V17.793H174.211V16.9753H180.119V17.793H177.622V23.9595H176.709ZM181.349 23.9595V16.9887H182.262V22.7262L186.518 16.9753H187.338V23.9595H186.424V18.3159L182.235 23.9595H181.349ZM192.744 23.9595V16.9887H193.657V22.7262L197.913 16.9753H198.733V23.9595H197.819V18.3159L193.63 23.9595H192.744ZM202.757 24.04C202.113 24.04 201.562 23.9193 201.106 23.678C200.649 23.4278 200.3 23.0792 200.059 22.6324L200.81 22.2973C200.981 22.61 201.227 22.8558 201.549 23.0346C201.871 23.2044 202.261 23.2893 202.717 23.2893C203.264 23.2893 203.697 23.1642 204.02 22.9139C204.351 22.6636 204.517 22.3285 204.517 21.9085C204.517 21.5242 204.387 21.2159 204.127 20.9835C203.868 20.7512 203.509 20.6306 203.053 20.6216H202.341V19.9915H203.107C203.304 19.9915 203.483 19.9379 203.644 19.8307C203.805 19.7234 203.931 19.5804 204.02 19.4017C204.109 19.223 204.154 19.0219 204.154 18.7984C204.154 18.4499 204.029 18.1684 203.778 17.9539C203.536 17.7394 203.179 17.6322 202.704 17.6322C202.31 17.6322 201.979 17.7126 201.71 17.8735C201.451 18.0254 201.24 18.2533 201.079 18.5572L200.381 18.1818C200.587 17.7707 200.891 17.4489 201.294 17.2166C201.706 16.9843 202.185 16.8681 202.731 16.8681C203.179 16.8681 203.568 16.9441 203.899 17.096C204.24 17.239 204.503 17.4489 204.691 17.726C204.888 17.9941 204.986 18.3203 204.986 18.7046C204.986 19.0353 204.906 19.3436 204.745 19.6296C204.584 19.9067 204.36 20.1166 204.073 20.2596C204.485 20.3847 204.804 20.6037 205.027 20.9165C205.26 21.2293 205.376 21.5957 205.376 22.0157C205.376 22.4358 205.264 22.7977 205.04 23.1016C204.817 23.4055 204.508 23.6378 204.114 23.7987C203.72 23.9595 203.268 24.04 202.757 24.04ZM216.922 23.1284V23.9595H210.517V14.4417H216.801V15.2728H211.457V18.7046H216.116V19.4955H211.457V23.1284H216.922ZM218.433 23.9595V16.9753H221.924C222.317 16.9753 222.649 17.0602 222.917 17.23C223.186 17.3909 223.387 17.6009 223.522 17.8601C223.664 18.1192 223.737 18.3963 223.737 18.6912C223.737 19.0666 223.647 19.4061 223.468 19.71C223.288 20.0049 223.029 20.2284 222.689 20.3803C223.092 20.4965 223.418 20.7065 223.669 21.0103C223.919 21.3142 224.045 21.6806 224.045 22.1096C224.045 22.4849 223.951 22.8111 223.763 23.0882C223.584 23.3653 223.334 23.5797 223.011 23.7316C222.698 23.8835 222.335 23.9595 221.924 23.9595H218.433ZM219.305 23.3027H221.897C222.129 23.3027 222.34 23.2446 222.528 23.1284C222.724 23.0033 222.877 22.8424 222.985 22.6458C223.1 22.4492 223.159 22.2436 223.159 22.0292C223.159 21.7968 223.105 21.5868 222.998 21.3991C222.891 21.2025 222.747 21.0461 222.568 20.9299C222.389 20.8137 222.183 20.7556 221.951 20.7556H219.305V23.3027ZM219.305 20.1256H221.682C221.915 20.1256 222.12 20.063 222.3 19.9379C222.479 19.8128 222.617 19.652 222.716 19.4553C222.814 19.2587 222.864 19.0532 222.864 18.8387C222.864 18.5169 222.756 18.2354 222.541 17.9941C222.335 17.7528 222.066 17.6322 221.736 17.6322H219.305V20.1256ZM229.203 24.0936C228.622 24.0936 228.098 23.9417 227.632 23.6378C227.176 23.3339 226.813 22.9586 226.545 22.5117V26.8149H225.631V16.9753H226.451V18.3293C226.728 17.8913 227.1 17.5383 227.565 17.2702C228.031 16.9932 228.528 16.8547 229.056 16.8547C229.539 16.8547 229.982 16.9575 230.385 17.163C230.788 17.3596 231.137 17.6277 231.432 17.9673C231.728 18.3069 231.956 18.6956 232.117 19.1336C232.287 19.5626 232.372 20.0094 232.372 20.4741C232.372 21.1266 232.238 21.7298 231.969 22.2839C231.71 22.829 231.343 23.2669 230.868 23.5976C230.394 23.9283 229.839 24.0936 229.203 24.0936ZM228.948 23.2893C229.333 23.2893 229.678 23.2133 229.982 23.0614C230.287 22.9005 230.546 22.686 230.761 22.4179C230.985 22.1498 231.155 21.8504 231.271 21.5197C231.388 21.1802 231.446 20.8316 231.446 20.4741C231.446 20.0988 231.379 19.7413 231.244 19.4017C231.119 19.0621 230.935 18.7627 230.694 18.5035C230.452 18.2444 230.175 18.0388 229.861 17.8869C229.548 17.735 229.208 17.659 228.841 17.659C228.608 17.659 228.367 17.7036 228.116 17.793C227.866 17.8824 227.624 18.012 227.391 18.1818C227.167 18.3427 226.979 18.5259 226.827 18.7314C226.675 18.9369 226.581 19.156 226.545 19.3883V21.5332C226.688 21.8638 226.88 22.1632 227.122 22.4313C227.364 22.6905 227.641 22.9005 227.954 23.0614C228.277 23.2133 228.608 23.2893 228.948 23.2893ZM236.9 24.0936C236.399 24.0936 235.933 23.9997 235.503 23.8121C235.083 23.6154 234.716 23.3518 234.402 23.0212C234.098 22.6816 233.861 22.2973 233.691 21.8683C233.521 21.4303 233.435 20.9701 233.435 20.4875C233.435 19.9871 233.521 19.5223 233.691 19.0934C233.861 18.6554 234.103 18.2712 234.416 17.9405C234.73 17.6009 235.096 17.3373 235.517 17.1496C235.946 16.9529 236.412 16.8547 236.913 16.8547C237.415 16.8547 237.876 16.9529 238.296 17.1496C238.718 17.3373 239.084 17.6009 239.397 17.9405C239.711 18.2712 239.953 18.6554 240.122 19.0934C240.293 19.5223 240.378 19.9871 240.378 20.4875C240.378 20.9701 240.293 21.4303 240.122 21.8683C239.953 22.2973 239.711 22.6816 239.397 23.0212C239.094 23.3518 238.726 23.6154 238.296 23.8121C237.876 23.9997 237.41 24.0936 236.9 24.0936ZM234.362 20.5009C234.362 21.0193 234.474 21.4929 234.698 21.9219C234.931 22.3419 235.24 22.6771 235.624 22.9273C236.009 23.1686 236.435 23.2893 236.9 23.2893C237.366 23.2893 237.791 23.1642 238.175 22.9139C238.561 22.6636 238.869 22.3241 239.102 21.8951C239.335 21.4572 239.451 20.9835 239.451 20.4741C239.451 19.9558 239.335 19.4821 239.102 19.0532C238.869 18.6242 238.561 18.2846 238.175 18.0343C237.791 17.7841 237.366 17.659 236.9 17.659C236.435 17.659 236.009 17.7886 235.624 18.0477C235.248 18.3069 234.944 18.651 234.711 19.08C234.479 19.5 234.362 19.9737 234.362 20.5009ZM241.892 23.9595V16.9753H247.518V23.9595H246.605V17.793H242.805V23.9595H241.892ZM249.523 23.9595V16.9753H250.437V19.4419H252.021C252.817 19.4419 253.418 19.6474 253.82 20.0586C254.232 20.4607 254.438 20.9925 254.438 21.6538C254.438 22.0828 254.348 22.4715 254.169 22.8201C253.99 23.1686 253.726 23.4457 253.377 23.6512C253.036 23.8567 252.607 23.9595 252.088 23.9595H249.523ZM250.437 23.2356H251.967C252.334 23.2356 252.629 23.1642 252.854 23.0212C253.077 22.8693 253.243 22.6771 253.35 22.4447C253.458 22.2034 253.511 21.9443 253.511 21.6672C253.511 21.3991 253.462 21.1534 253.364 20.9299C253.274 20.6976 253.113 20.5143 252.88 20.3803C252.656 20.2373 252.343 20.1658 251.94 20.1658H250.437V23.2356ZM255.714 23.9595V16.9887H256.627V23.9595H255.714Z" fill="black"/>
</g>
</g>
</g>
<defs>
<clipPath id="clip0_0_539">
<rect width="261" height="62" fill="white" transform="translate(0 0.5)"/>
</clipPath>
</defs>
</svg>
