<svg width="14" height="14" viewBox="0 0 14 14" fill="none" xmlns="http://www.w3.org/2000/svg">
<g clip-path="url(#clip0_0_658)">
<path d="M12.2909 1.67285H1.71198C0.767639 1.67285 0 2.44049 0 3.38483V10.6151C0 11.5595 0.767639 12.3271 1.71198 12.3271H12.288C13.2324 12.3271 14 11.5595 14 10.6151V3.38773C14.0029 2.44339 13.2353 1.67285 12.2909 1.67285ZM13.2208 10.6151C13.2208 11.1278 12.8036 11.545 12.2909 11.545H1.71198C1.19925 11.545 0.782123 11.1278 0.782123 10.6151V3.38773C0.782123 2.875 1.19925 2.45787 1.71198 2.45787H12.288C12.8007 2.45787 13.2179 2.875 13.2179 3.38773V10.6151H13.2208Z" fill="black"/>
<path d="M8.82952 6.90987L12.2535 3.83931C12.4128 3.69447 12.4273 3.44825 12.2825 3.28603C12.1376 3.12671 11.8914 3.11223 11.7292 3.25706L7.00747 7.49501L6.0863 6.67233C6.08341 6.66944 6.08051 6.66654 6.08051 6.66364C6.06023 6.64337 6.03995 6.62598 6.01678 6.6086L2.26838 3.25417C2.10616 3.10933 1.85994 3.12381 1.7151 3.28603C1.57027 3.44825 1.58475 3.69447 1.74697 3.83931L5.21148 6.93594L1.76145 10.1658C1.60503 10.3135 1.59634 10.5598 1.74407 10.7191C1.82228 10.8002 1.92657 10.8437 2.03085 10.8437C2.12644 10.8437 2.22203 10.8089 2.29735 10.7394L5.79952 7.46315L6.74966 8.31189C6.82497 8.37852 6.91767 8.41038 7.01037 8.41038C7.10306 8.41038 7.19865 8.37562 7.27107 8.309L8.24728 7.43418L11.7292 10.7423C11.8045 10.8147 11.903 10.8494 11.9986 10.8494C12.1029 10.8494 12.2042 10.8089 12.2825 10.7278C12.4302 10.5714 12.4244 10.3222 12.268 10.1745L8.82952 6.90987Z" fill="black"/>
</g>
<defs>
<clipPath id="clip0_0_658">
<rect width="14" height="14" fill="white"/>
</clipPath>
</defs>
</svg>
