<svg width="14" height="14" viewBox="0 0 14 14" fill="none" xmlns="http://www.w3.org/2000/svg">
<g clip-path="url(#clip0_0_650)">
<path d="M11.0644 8.67228C10.7777 8.37385 10.432 8.21429 10.0656 8.21429C9.7022 8.21429 9.35354 8.37089 9.0551 8.66933L8.12139 9.60009C8.04456 9.55872 7.96774 9.52031 7.89387 9.4819C7.78749 9.42871 7.68703 9.37848 7.60134 9.32529C6.72672 8.76979 5.93188 8.04587 5.16954 7.10919C4.8002 6.64234 4.55199 6.24935 4.37175 5.85045C4.61404 5.62884 4.83861 5.39837 5.05726 5.17676C5.14 5.09402 5.22273 5.00833 5.30547 4.9256C5.92597 4.30509 5.92597 3.50139 5.30547 2.88088L4.49881 2.07422C4.40721 1.98262 4.31265 1.88807 4.22401 1.79352C4.04672 1.61032 3.86057 1.42121 3.66851 1.24393C3.38189 0.960265 3.03914 0.80957 2.67865 0.80957C2.31817 0.80957 1.9695 0.960265 1.67402 1.24393C1.67107 1.24688 1.67107 1.24688 1.66811 1.24983L0.663481 2.26333C0.285267 2.64154 0.0695671 3.10249 0.0222904 3.63731C-0.0486247 4.50011 0.205488 5.30381 0.400504 5.82977C0.879181 7.12101 1.59424 8.31771 2.66092 9.60009C3.95512 11.1454 5.5123 12.3658 7.29109 13.2256C7.97069 13.5477 8.87781 13.9289 9.89131 13.9939C9.95336 13.9968 10.0184 13.9998 10.0775 13.9998C10.76 13.9998 11.3332 13.7545 11.7824 13.267C11.7853 13.2611 11.7912 13.2581 11.7942 13.2522C11.9478 13.0661 12.1251 12.8976 12.3113 12.7174C12.4383 12.5963 12.5684 12.4692 12.6954 12.3362C12.9879 12.0319 13.1416 11.6773 13.1416 11.3139C13.1416 10.9475 12.985 10.5959 12.6865 10.3004L11.0644 8.67228ZM12.1222 11.7837C12.1192 11.7837 12.1192 11.7866 12.1222 11.7837C12.0069 11.9078 11.8888 12.0201 11.7617 12.1442C11.5696 12.3274 11.3746 12.5194 11.1914 12.7351C10.893 13.0542 10.5414 13.2049 10.0804 13.2049C10.0361 13.2049 9.98882 13.2049 9.94449 13.202C9.06692 13.1458 8.2514 12.8031 7.63975 12.5106C5.96734 11.7009 4.49881 10.5515 3.27848 9.09482C2.27089 7.8804 1.5972 6.75757 1.15102 5.55202C0.876226 4.81627 0.775763 4.24304 0.820085 3.70232C0.849633 3.3566 0.982599 3.06999 1.22785 2.82474L2.23543 1.81716C2.38022 1.68124 2.53387 1.60737 2.68456 1.60737C2.87071 1.60737 3.02141 1.71965 3.11596 1.8142C3.11892 1.81716 3.12187 1.82011 3.12483 1.82307C3.30507 1.99149 3.47645 2.16582 3.65669 2.35197C3.74829 2.44653 3.84284 2.54108 3.93739 2.63859L4.74405 3.44525C5.05726 3.75846 5.05726 4.04803 4.74405 4.36123C4.65836 4.44692 4.57563 4.53261 4.48994 4.61535C4.24174 4.86946 4.00536 5.10584 3.74829 5.33632C3.74238 5.34223 3.73647 5.34518 3.73351 5.35109C3.4794 5.6052 3.52668 5.85341 3.57986 6.02183C3.58282 6.03069 3.58577 6.03956 3.58873 6.04842C3.79852 6.55665 4.094 7.03533 4.54313 7.6056L4.54608 7.60856C5.36161 8.61319 6.22145 9.39621 7.16994 9.99603C7.29109 10.0729 7.41519 10.1349 7.53338 10.194C7.63975 10.2472 7.74022 10.2974 7.82591 10.3506C7.83772 10.3565 7.84954 10.3654 7.86136 10.3713C7.96183 10.4215 8.05638 10.4452 8.15389 10.4452C8.39914 10.4452 8.55279 10.2915 8.60302 10.2413L9.61356 9.23074C9.71402 9.13027 9.87358 9.00913 10.0597 9.00913C10.2429 9.00913 10.3936 9.12436 10.4852 9.22483C10.4882 9.22778 10.4882 9.22778 10.4911 9.23074L12.1192 10.8588C12.4236 11.1602 12.4236 11.4705 12.1222 11.7837Z" fill="black"/>
<path d="M7.56589 3.33038C8.34005 3.46039 9.04329 3.82678 9.6047 4.3882C10.1661 4.94961 10.5296 5.65285 10.6625 6.427C10.695 6.62202 10.8634 6.75794 11.0555 6.75794C11.0791 6.75794 11.0998 6.75499 11.1235 6.75203C11.3421 6.71657 11.4869 6.50974 11.4514 6.29108C11.2919 5.35441 10.8487 4.50048 10.172 3.82383C9.49537 3.14718 8.64144 2.70396 7.70477 2.5444C7.48611 2.50895 7.28223 2.65373 7.24382 2.86943C7.20541 3.08513 7.34724 3.29492 7.56589 3.33038Z" fill="black"/>
<path d="M13.9837 6.17569C13.7207 4.63329 12.9938 3.22976 11.8769 2.11285C10.76 0.995938 9.35644 0.269058 7.81404 0.00608141C7.59834 -0.0323309 7.39446 0.115409 7.35605 0.331109C7.32059 0.549764 7.46537 0.753645 7.68403 0.792057C9.06096 1.02549 10.3168 1.6785 11.3155 2.67426C12.3142 3.67298 12.9642 4.92877 13.1977 6.30571C13.2302 6.50072 13.3986 6.63664 13.5907 6.63664C13.6143 6.63664 13.635 6.63369 13.6586 6.63073C13.8743 6.59823 14.0221 6.3914 13.9837 6.17569Z" fill="black"/>
</g>
<defs>
<clipPath id="clip0_0_650">
<rect width="14" height="14" fill="white"/>
</clipPath>
</defs>
</svg>
