<svg width="22" height="23" viewBox="0 0 22 23" fill="none" xmlns="http://www.w3.org/2000/svg">
	<path d="M9.41797 0.75C14.1974 0.750113 18.085 4.63829 18.085 9.41797C18.085 11.4381 17.3884 13.2974 16.2256 14.7725L20.9492 19.4961L21.0195 19.5742C21.3487 19.9778 21.3254 20.573 20.9492 20.9492C20.7486 21.1498 20.4851 21.2499 20.2227 21.25C19.9931 21.25 19.7626 21.1731 19.5742 21.0195L19.4961 20.9492L14.7715 16.2256C13.2966 17.3881 11.4377 18.0849 9.41797 18.085C4.63833 18.085 0.75 14.1974 0.75 9.41797C0.750001 4.63821 4.63831 0.75 9.41797 0.75ZM9.41797 2.80566C5.77199 2.80566 2.80566 5.77187 2.80566 9.41797C2.80566 13.0637 5.77196 16.0303 9.41797 16.0303C13.0637 16.0302 16.0303 13.0637 16.0303 9.41797C16.0303 5.77193 13.0637 2.80578 9.41797 2.80566Z" fill="white" stroke="white" stroke-width="0.5"/>
</svg>