<svg width="20" height="21" viewBox="0 0 20 21" fill="none">
	<path d="M7.07031 17.5312C7.07031 18.5005 7.85885 19.289 8.8281 19.289C9.79734 19.289 10.5859 18.5005 10.5859 17.5312C10.5859 16.562 9.79734 15.7734 8.8281 15.7734C7.85885 15.7734 7.07031 16.562 7.07031 17.5312ZM8.8281 16.9453C9.15118 16.9453 9.41403 17.2081 9.41403 17.5312C9.41403 17.8543 9.15118 18.1172 8.8281 18.1172C8.50502 18.1172 8.24217 17.8543 8.24217 17.5312C8.24217 17.2081 8.50502 16.9453 8.8281 16.9453Z" fill="black"/>
	<path d="M12.9688 17.5312C12.9688 18.5005 13.7573 19.289 14.7265 19.289C15.6958 19.289 16.4843 18.5005 16.4843 17.5312C16.4843 16.562 15.6958 15.7734 14.7265 15.7734C13.7573 15.7734 12.9688 16.562 12.9688 17.5312ZM14.7265 16.9453C15.0496 16.9453 15.3125 17.2081 15.3125 17.5312C15.3125 17.8543 15.0496 18.1172 14.7265 18.1172C14.4035 18.1172 14.1406 17.8543 14.1406 17.5312C14.1406 17.2081 14.4035 16.9453 14.7265 16.9453Z" fill="black"/>
	<path d="M19.4138 4.05489H4.58262C4.382 3.3526 4.19505 2.69824 4.03447 2.13617C3.96263 1.88462 3.73268 1.71118 3.47108 1.71118H0.585928C0.26234 1.71118 0 1.97352 0 2.29711C0 2.6207 0.26234 2.88304 0.585928 2.88304H3.02909C3.68432 5.1766 5.21609 10.538 5.85827 12.7856L5.63628 13.2296C5.05133 14.3996 5.90323 15.7735 7.20852 15.7735H17.07C17.3936 15.7735 17.656 15.5111 17.656 15.1875C17.656 14.8639 17.3936 14.6016 17.07 14.6016H7.20852C6.77275 14.6016 6.48974 14.1431 6.68443 13.7536L6.84638 13.4297H17.07C17.3316 13.4297 17.5616 13.2564 17.6334 13.0048L19.9771 4.8018C20.0839 4.42817 19.8032 4.05489 19.4138 4.05489ZM16.6281 12.2579H6.92626C6.60701 11.1404 5.7135 8.01323 4.91742 5.22675H18.637L16.6281 12.2579Z" fill="black"/>
</svg>