<svg width="16" height="16" viewBox="0 0 16 16" fill="none" xmlns="http://www.w3.org/2000/svg">
	<path d="M14.0002 2.66666H6.66683C6.49002 2.66666 6.32045 2.73689 6.19542 2.86192C6.0704 2.98694 6.00016 3.15651 6.00016 3.33332V10.6667C6.00016 10.8435 6.0704 11.013 6.19542 11.1381C6.32045 11.2631 6.49002 11.3333 6.66683 11.3333H14.0002C14.177 11.3333 14.3465 11.2631 14.4716 11.1381C14.5966 11.013 14.6668 10.8435 14.6668 10.6667V3.33332C14.6668 3.15651 14.5966 2.98694 14.4716 2.86192C14.3465 2.73689 14.177 2.66666 14.0002 2.66666ZM1.3335 11.3333H6.00016V6.66666H3.66683L1.3335 8.82066V11.3333Z" stroke="#1C3D5A" stroke-width="1.3" stroke-linejoin="round"/>
	<path d="M6.00016 12C6.00016 12.3536 5.85969 12.6928 5.60964 12.9428C5.35959 13.1929 5.02045 13.3333 4.66683 13.3333C4.31321 13.3333 3.97407 13.1929 3.72402 12.9428C3.47397 12.6928 3.3335 12.3536 3.3335 12M13.3335 12C13.3335 12.3536 13.193 12.6928 12.943 12.9428C12.6929 13.1929 12.3538 13.3333 12.0002 13.3333C11.6465 13.3333 11.3074 13.1929 11.0574 12.9428C10.8073 12.6928 10.6668 12.3536 10.6668 12" stroke="#1C3D5A" stroke-width="1.3" stroke-linecap="round" stroke-linejoin="round"/>
</svg>