<svg width="22" height="24" viewBox="0 0 22 24" fill="none" xmlns="http://www.w3.org/2000/svg">
<g clip-path="url(#clip0_0_611)">
<path d="M10.9939 0C7.3539 0 4.2839 0.201 3.8259 0.468C3.0259 0.741 2.4239 2.558 2.4219 4.714V5.785H2.2039C2.18206 5.73554 2.15234 5.68995 2.1159 5.65C2.21001 5.54108 2.26183 5.40195 2.2619 5.258V4.714C2.27462 4.58674 2.23709 4.45954 2.1573 4.35958C2.07752 4.25962 1.96182 4.19481 1.8349 4.179H0.976898C0.849033 4.19455 0.732434 4.25983 0.652334 4.3607C0.572234 4.46158 0.535075 4.58994 0.548898 4.718V4.716V5.26C0.548898 5.41 0.603898 5.548 0.694898 5.653L0.693898 5.652C0.599784 5.76092 0.547966 5.90005 0.547898 6.044V8.73C0.546565 8.74533 0.545898 8.76133 0.545898 8.778C0.545898 9.028 0.732898 9.235 0.974898 9.265H1.8339C1.91434 9.26086 1.9919 9.23368 2.05732 9.1867C2.12274 9.13971 2.17328 9.0749 2.2029 9L2.2039 8.997H2.4219V13.819C2.4219 14.01 2.6269 14.187 2.9579 14.282V14.908C2.4849 14.969 2.1579 15.182 2.1579 15.426V20.786C2.12413 21.4503 2.31505 22.1065 2.6999 22.649L2.6939 22.64V23.561C2.6939 23.804 2.8909 24.001 3.1339 24.001H4.9319C5.04859 24.001 5.16051 23.9546 5.24303 23.8721C5.32554 23.7896 5.3719 23.6777 5.3719 23.561V22.93H16.6189V23.561C16.6189 23.804 16.8159 24.001 17.0589 24.001H18.8569C18.9147 24.001 18.9719 23.9896 19.0253 23.9675C19.0787 23.9454 19.1272 23.913 19.168 23.8721C19.2089 23.8313 19.2413 23.7828 19.2634 23.7294C19.2855 23.676 19.2969 23.6188 19.2969 23.561V22.641C19.679 22.0986 19.8677 21.4436 19.8329 20.781V20.788V15.428C19.8329 15.184 19.5019 14.971 19.0329 14.91V14.284C19.3639 14.189 19.5679 14.012 19.5689 13.821V9.001H19.7869C19.8469 9.153 19.9889 9.26 20.1559 9.269H21.0109C21.1388 9.25345 21.2554 9.18817 21.3355 9.0873C21.4156 8.98642 21.4527 8.85806 21.4389 8.73V8.732V6.046C21.4391 5.90171 21.3872 5.76218 21.2929 5.653L21.2939 5.654C21.388 5.54508 21.4398 5.40595 21.4399 5.262V4.72C21.4526 4.59274 21.4151 4.46554 21.3353 4.36558C21.2555 4.26562 21.1398 4.20081 21.0129 4.185H20.1539C20.026 4.20055 19.9094 4.26583 19.8293 4.3667C19.7492 4.46758 19.7121 4.59594 19.7259 4.724V4.722V5.266C19.7259 5.416 19.7809 5.554 19.8719 5.659L19.8709 5.658C19.8363 5.69766 19.807 5.74171 19.7839 5.789L19.7829 5.792H19.5649V4.716C19.5649 2.549 18.9569 0.724 18.1509 0.465C17.6609 0.199 14.6059 0.002 10.9939 0.002V0ZM3.6459 3.107H18.3409C18.5999 3.107 18.8159 3.291 18.8659 3.536L18.8669 3.539C18.9689 4.049 19.0269 4.636 19.0269 5.237V5.275V5.273V9C19.0269 9.296 18.7869 9.536 18.4909 9.536H3.4939C3.35174 9.536 3.21541 9.47953 3.11489 9.37901C3.01437 9.27849 2.9579 9.14216 2.9579 9V5.238C2.95857 4.636 3.0149 4.05067 3.1269 3.482L3.1179 3.539C3.14198 3.41722 3.20759 3.30758 3.30353 3.22879C3.39946 3.15 3.51976 3.10696 3.6439 3.107H3.6459ZM4.2969 14.893H5.4449C5.5879 14.893 5.7039 15.005 5.7119 15.146V15.147L5.9029 18.629V18.643C5.9029 18.791 5.7829 18.911 5.6349 18.911H4.2969C4.22598 18.9105 4.15812 18.8821 4.10797 18.8319C4.05783 18.7818 4.02942 18.7139 4.0289 18.643V15.161C4.0289 15.013 4.1489 14.893 4.2969 14.893ZM16.5419 14.893H17.6899C17.8379 14.893 17.9579 15.013 17.9579 15.161V18.64C17.9579 18.788 17.8379 18.908 17.6899 18.908H16.3509C16.28 18.9075 16.2121 18.8791 16.162 18.8289C16.1118 18.7788 16.0834 18.7109 16.0829 18.64V18.625L16.2739 15.144C16.2839 15.004 16.3999 14.894 16.5409 14.894L16.5419 14.893ZM6.5739 15.533H15.4139C15.4879 15.533 15.5479 15.593 15.5479 15.667V15.827C15.5479 15.901 15.4879 15.961 15.4139 15.961H6.5739C6.53836 15.961 6.50428 15.9469 6.47915 15.9218C6.45402 15.8966 6.4399 15.8625 6.4399 15.827V15.667C6.4399 15.593 6.4999 15.533 6.5739 15.533ZM6.6269 16.497H15.3599C15.4339 16.497 15.4939 16.557 15.4939 16.631V16.791C15.4939 16.865 15.4339 16.925 15.3599 16.925H6.6269C6.59136 16.925 6.55728 16.9109 6.53215 16.8858C6.50702 16.8606 6.4929 16.8265 6.4929 16.791V16.631C6.4929 16.557 6.5529 16.497 6.6269 16.497ZM6.6809 17.461H15.3069C15.3809 17.461 15.4409 17.521 15.4409 17.595V17.755C15.4409 17.829 15.3809 17.889 15.3069 17.889H6.6809C6.64647 17.889 6.61338 17.8757 6.58858 17.8518C6.56377 17.828 6.54919 17.7954 6.5479 17.761V17.601C6.5479 17.527 6.6079 17.467 6.6819 17.467L6.6809 17.461ZM6.7349 18.425H15.2529C15.3269 18.425 15.3869 18.485 15.3869 18.559V18.719C15.3869 18.793 15.3269 18.853 15.2529 18.853H6.7349C6.69936 18.853 6.66528 18.8389 6.64015 18.8138C6.61502 18.7886 6.6009 18.7545 6.6009 18.719V18.559C6.6009 18.485 6.6609 18.425 6.7349 18.425Z" fill="#1C3D5A"/>
</g>
<defs>
<clipPath id="clip0_0_611">
<rect width="21" height="24" fill="white" transform="translate(0.544922)"/>
</clipPath>
</defs>
</svg>
