<svg width="17" height="16" viewBox="0 0 17 16" fill="none" xmlns="http://www.w3.org/2000/svg">
<g clip-path="url(#clip0_0_562)">
<path fill-rule="evenodd" clip-rule="evenodd" d="M10.4101 8.93531C10.1073 9.05906 9.91383 9.53312 9.71758 9.77531C9.61696 9.89937 9.49696 9.91875 9.34227 9.85656C8.20571 9.40375 7.33446 8.64531 6.70727 7.59937C6.60102 7.43719 6.62008 7.30906 6.74821 7.15844C6.93758 6.93531 7.17571 6.68187 7.22696 6.38125C7.34071 5.71625 6.47133 3.65344 5.32321 4.58813C2.01946 7.28031 10.8345 14.4206 12.4254 10.5588C12.8754 9.46406 10.912 8.72969 10.4101 8.93531ZM8.50008 14.6025C7.33165 14.6025 6.18196 14.2919 5.1754 13.7037C5.01383 13.6091 4.81852 13.5841 4.6379 13.6331L2.45071 14.2334L3.21258 12.555C3.31633 12.3266 3.28977 12.0606 3.14321 11.8575C2.32821 10.7278 1.89727 9.39406 1.89727 8C1.89727 4.35906 4.85915 1.39719 8.50008 1.39719C12.141 1.39719 15.1026 4.35906 15.1026 8C15.1026 11.6406 12.1407 14.6025 8.50008 14.6025ZM8.50008 0C4.08883 0 0.500084 3.58875 0.500084 8C0.500084 9.55188 0.940709 11.0422 1.7779 12.3356L0.562584 15.0122C0.450396 15.2594 0.491334 15.5487 0.666959 15.7547C0.801959 15.9125 0.997271 16 1.19883 16C1.64946 16 4.10665 15.2278 4.73196 15.0562C5.8879 15.6747 7.18446 16 8.50008 16C12.911 16 16.5001 12.4109 16.5001 8C16.5001 3.58875 12.911 0 8.50008 0Z" fill="#39AE41"/>
</g>
<defs>
<clipPath id="clip0_0_562">
<rect width="16" height="16" fill="white" transform="translate(0.5)"/>
</clipPath>
</defs>
</svg>
